<?xml version="1.0" encoding="utf-8"?>
<!-- Generator: Adobe Illustrator 24.0.1, SVG Export Plug-In . SVG Version: 6.00 Build 0)  -->
<svg version="1.1" xmlns="http://www.w3.org/2000/svg" xmlns:xlink="http://www.w3.org/1999/xlink" x="0px" y="0px"
	 viewBox="0 0 750 500" style="enable-background:new 0 0 750 500;" xml:space="preserve">
<style type="text/css">
	.st0{fill:#84AFC1;}
	.st1{fill:#6397A5;}
	.st2{opacity:0.3;fill:#6397A5;}
	.st3{fill:#568A96;}
	.st4{fill:#A7D9EA;}
	.st5{fill:#F7F5F9;}
	.st6{fill:#C73E5D;}
	.st7{fill:#2B4660;}
	.st8{font-family:'Montserrat-Black';}
	.st9{font-size:15.2429px;}
	.st10{opacity:0.3;fill:#84AFC1;}
	.st11{fill:none;stroke:#FFFFFF;stroke-miterlimit:10;}
	.st12{fill:#004C55;}
	.st13{fill:#21394C;}
	.st14{fill:#FFFFFF;}
	.st15{fill:none;stroke:#EDBAC3;stroke-miterlimit:10;}
	.st16{fill:#E7B9AE;}
	.st17{fill:none;stroke:#395B77;stroke-miterlimit:10;}
	.st18{fill:#DB939B;}
	.st19{fill:none;stroke:#CC7E88;stroke-width:0.5;stroke-miterlimit:10;}
	.st20{fill:#CC7E88;}
	.st21{fill:none;stroke:#233F4E;stroke-miterlimit:10;}
	.st22{fill:url(#SVGID_1_);}
	.st23{fill:url(#SVGID_2_);}
	.st24{fill:#233F4E;}
	.st25{fill:#AD3B59;}
	.st26{fill:#1C343F;}
	.st27{opacity:0.8;fill:url(#SVGID_3_);}
	.st28{fill:#ECDCD1;}
	.st29{fill:none;stroke:#BFA797;stroke-miterlimit:10;}
	.st30{opacity:0.4;fill:#233C51;}
	.st31{fill:none;stroke:#CC7E88;stroke-miterlimit:10;}
	.st32{fill:url(#SVGID_4_);}
	.st33{fill:url(#SVGID_5_);}
	.st34{fill:#18323D;}
	.st35{fill:url(#SVGID_6_);}
	.st36{fill:#1B323D;}
	.st37{fill:#DB912B;}
	.st38{fill:none;stroke:#1D3549;stroke-miterlimit:10;}
	.st39{fill:none;stroke:#A32F4E;stroke-miterlimit:10;}
	.st40{fill:#1C3C47;}
	.st41{fill:url(#SVGID_7_);}
</style>
<g id="BACKGROUND">
	<rect x="0" y="0" class="st0" width="750" height="500"/>
</g>
<g id="OBJECTS">
	<g>
		<polygon class="st1" points="750,359.66 750,499.83 0,499.89 0,363.14 71.85,363.14 71.85,302.15 80.98,302.15 80.98,284.55 
			130.81,284.55 130.81,296.62 143.34,296.62 143.34,260.8 198.66,260.8 198.66,251.19 205.19,251.19 205.19,191.88 235.98,191.88 
			235.98,251.19 251.59,251.19 251.59,323.54 313.33,323.54 313.33,94.89 367.4,94.89 367.4,268.65 421.47,268.65 421.47,290.45 
			726.98,290.45 726.98,359.66 		"/>
		<polygon class="st2" points="750,239.71 750,379.88 0,379.95 0,243.2 71.85,243.2 71.85,182.2 80.98,182.2 80.98,164.6 
			130.81,164.6 130.81,176.67 143.34,176.67 143.34,140.85 198.66,140.85 198.66,131.24 205.19,131.24 205.19,71.94 235.98,71.94 
			235.98,131.24 251.59,131.24 251.59,203.59 313.33,203.59 313.33,41.83 367.4,41.83 367.4,148.7 421.47,148.7 421.47,170.5 
			726.98,170.5 726.98,239.71 		"/>
		<rect y="430.52" class="st3" width="750" height="69.48"/>
		<path class="st4" d="M20.58,500H163.1l-37.41-15.05c0,0,19.48-24.12,5.08-31.89c-14.4-7.77-25.46,8.27-25.46,8.27
			s21.65-48.83-8.55-55.67c-30.19-6.84-36.65,27.8-36.65,27.8s1.64-18.77-6.89-17.54c-8.53,1.23-8.14,20.63-8.14,20.63
			S31.98,411.17,0,420.32V500H20.58z"/>
		<path class="st4" d="M750,420.55V500H613.06l37.4-15.05c0,0-19.48-24.13-5.08-31.9c14.04-7.57,24.9,7.49,25.44,8.25
			c-0.57-1.31-21.21-48.89,8.56-55.64c30.19-6.84,36.65,27.8,36.65,27.8s-1.64-18.77,6.89-17.54c8.53,1.23,8.15,20.63,8.15,20.63
			S736.82,425.41,750,420.55z"/>
	</g>
	<g>
		<g>
			<path class="st5" d="M510.63,57.3v168.1c0,8.91-7.22,16.14-16.13,16.14h-52.52c2.3,17.95,15.8,25.78,15.8,25.78
				s-31.6-2.74-35.84-25.78H155.38c-8.91,0-16.14-7.23-16.14-16.14V57.3c0-8.91,7.23-16.13,16.14-16.13H494.5
				C503.41,41.17,510.63,48.39,510.63,57.3z"/>
			<polygon class="st6" points="510.63,41.17 510.63,66.83 139.24,66.83 139.24,41.17 510.63,41.17 			"/>
			<circle class="st5" cx="482.56" cy="54" r="4.63"/>
			<path class="st5" d="M501.55,54c0,2.56-2.07,4.63-4.63,4.63s-4.63-2.07-4.63-4.63s2.07-4.63,4.63-4.63S501.55,51.44,501.55,54z"
				/>
			<g>
				<text transform="matrix(1 0 0 1 153.679 94.845)"><tspan x="0" y="0" class="st7 st8 st9">BREAKING </tspan><tspan x="0" y="18.29" class="st7 st8 st9">NEWS</tspan></text>
				<rect x="343.09" y="125.29" class="st10" width="85.75" height="80.99"/>
				<rect x="434.72" y="125.29" class="st0" width="62.66" height="3.95"/>
				<rect x="434.72" y="133.82" class="st0" width="62.66" height="3.95"/>
				<rect x="434.72" y="142.36" class="st0" width="62.66" height="3.95"/>
				<rect x="434.72" y="150.89" class="st0" width="62.66" height="3.95"/>
				<rect x="434.72" y="159.42" class="st0" width="62.66" height="3.95"/>
				<rect x="434.72" y="167.96" class="st0" width="62.66" height="3.95"/>
				<rect x="434.72" y="176.49" class="st0" width="62.66" height="3.95"/>
				<rect x="434.72" y="185.02" class="st0" width="62.66" height="3.95"/>
				<rect x="434.72" y="193.56" class="st0" width="62.66" height="3.95"/>
				<rect x="434.72" y="202.09" class="st0" width="31.33" height="3.95"/>
				<rect x="253.44" y="84.72" class="st10" width="243.94" height="35.06"/>
			</g>
		</g>
		<rect x="153.68" y="125.29" class="st10" width="183.95" height="80.99"/>
	</g>
	<path class="st11" d="M435.84,488.57c14.6,7.81,16.93-23.08,44.8-21.74"/>
	<g>
		<g>
			<path class="st6" d="M192.96,202.41c-12.11,30.75-38.36,40.43-23.76,64.03c14.6,23.61,83.39,38.52,115.49,12.17
				c32.1-26.35-6.85-41.21-6.55-60.04c0.31-18.83-45.79-27.69-45.79-27.69L192.96,202.41z"/>
			<path class="st12" d="M200.41,208.8l0.05-1.04C212.89,212.07,200.41,208.8,200.41,208.8z"/>
			<path class="st13" d="M286.89,297.85C316.53,308.55,326.15,500,326.15,500h-53.42L286.89,297.85z"/>
			<path class="st13" d="M159.9,297.85C130.27,308.55,120.65,500,120.65,500h53.42L159.9,297.85z"/>
			<path class="st14" d="M292.42,473.33H153.68l33.38-154.23l7.01-32.4l6.63-1.61c15.32-3.72,31.32-3.65,46.61,0.17l5.78,1.44
				l7.54,35.21l28.43,132.74L292.42,473.33z"/>
			<path class="st15" d="M219.71,342.64c16.46,0.8,32.36-7.01,32.36-7.01"/>
			<path class="st16" d="M260.63,321.92c-8.61,5.95-21.1,9.69-34.97,9.69c-15.97,0-30.09-4.94-38.6-12.5l7.01-32.4l6.63-1.61
				c15.32-3.72,31.32-3.65,46.61,0.17l5.78,1.44L260.63,321.92z"/>
			<path class="st7" d="M198.73,454.66h-49.99l7.91-108.97l3.24-47.83l18.68-6.09l15.49-5.06c0,0,1.8,15.11,11.15,20.5
				c0,0,0.37,4.2,0.86,11.23v0.01C208.17,348.63,212.44,430.74,198.73,454.66z"/>
			<path class="st7" d="M253.09,286.71c0,0-1.8,15.1-11.15,20.5c0,0-10.43,117.96,6.47,147.45h49.99l-7.91-108.97l-3.24-47.83
				L253.09,286.71z"/>
			<path class="st17" d="M183.01,294.83c0,0-5.27,28.81-8.95,53.62c-3.69,24.81,21.31,37.15,21.31,37.15s-20.91,14.45,2.06,39.65"/>
			<path class="st17" d="M266.25,294.83c0,0,5.27,28.81,8.95,53.62c3.69,24.81-21.31,37.15-21.31,37.15s20.91,14.45-2.06,39.65"/>
			<g>
				<polygon class="st16" points="240.41,294.83 203.08,289.79 211.17,266.11 214.61,256.07 238.64,259.39 239.96,285.85 				"/>
				<path class="st18" d="M239.96,285.85c-8.2-1.69-20.47-6.44-28.79-19.74l3.43-10.04l24.03,3.31L239.96,285.85z"/>
				<path class="st6" d="M271.69,239.22c-5.79,9.95-15,17.57-25.28,21.53c-7.06,2.71-14.61,3.66-21.93,2.48
					c-4.3-0.71-8.36-2.12-12.03-4.13c-0.35-0.15-0.69-0.36-1.04-0.56c-0.89-0.51-1.75-1.08-2.58-1.65
					c-11.05-7.66-18.08-20.98-18.6-35.9c-0.14-3.58,0.12-7.25,0.78-10.97c0.47-2.62,1.12-5.14,1.95-7.59
					c4.72-14.14,15.11-24.98,27.56-29.8c6.43-2.51,13.41-3.38,20.49-2.27c18.34,2.84,30.15,13.63,34.94,27.85
					c0.13,0.37,0.23,0.72,0.35,1.08c0.36,1.16,0.68,2.33,0.92,3.53l0.02,0.01c0.04,0.17,0.08,0.34,0.09,0.5
					c0.07,0.26,0.13,0.52,0.17,0.79c0.13,0.62,0.23,1.22,0.32,1.87c-0.01,0.02,0,0.05,0,0.05c0.17,1.04,0.29,2.08,0.37,3.12
					c0.42,4.65,0.16,9.53-0.71,14.49c-0.33,1.86-0.78,3.71-1.32,5.49C275.05,232.68,273.54,236.07,271.69,239.22z"/>
				<g>
					<path class="st16" d="M199.43,224.52c-6.38-8.35-13.75-8.22-16.09,2.35c-2.34,10.57,8.37,18.38,16.39,14.66
						C207.74,237.81,199.43,224.52,199.43,224.52z"/>
					<path class="st18" d="M192.64,225.23c-3.91-0.44-5.09,11.21,3.41,11l-2.02-3.89l1.4-3.46L192.64,225.23z"/>
					<path class="st19" d="M197.42,237.72c-5.31-4.92-2-8.84-2-8.84s-5.38-9.31-6.74-1.79"/>
				</g>
				<g>
					<path class="st16" d="M262.95,234.65c7.14-7.71,14.46-6.89,15.8,3.85c1.34,10.74-10.06,17.51-17.69,13.06
						C253.42,247.1,262.95,234.65,262.95,234.65z"/>
					<path class="st18" d="M269.44,236.08c3.93-0.19,4.37,11.51-4.1,10.76l2.27-3.76l-1.18-3.54L269.44,236.08z"/>
					<path class="st19" d="M263.7,247.98c5.75-4.4,2.82-8.61,2.82-8.61s6.23-8.77,6.88-1.15"/>
				</g>
				<path class="st16" d="M252.48,259.96v0.01c-0.35,0.5-0.72,0.98-1.09,1.45l-0.01,0.02c-5.21,6.56-12.53,10.79-22.81,10.15
					c-13.78-0.83-21.58-7.52-25.71-16.59c-0.72-1.56-1.32-3.2-1.83-4.88c-6.76-22.37,3.54-54.13,3.54-54.13l59.42,9.48
					C263.99,205.48,266.02,240.95,252.48,259.96z"/>
				<g>
					<path class="st20" d="M212.52,239.87c0.14,0.85,0.94,1.43,1.8,1.29s1.43-0.94,1.29-1.8c-0.14-0.85-0.94-1.43-1.8-1.29
						C212.96,238.21,212.38,239.02,212.52,239.87z"/>
					<path class="st20" d="M211.49,243.16c0.07,0.42,0.47,0.71,0.89,0.64c0.42-0.07,0.71-0.47,0.64-0.89
						c-0.07-0.42-0.47-0.71-0.89-0.64C211.71,242.34,211.42,242.74,211.49,243.16z"/>
					<path class="st20" d="M209.39,240.2c0.09,0.57,0.64,0.96,1.21,0.87c0.57-0.09,0.96-0.64,0.87-1.21
						c-0.09-0.57-0.64-0.96-1.21-0.87C209.68,239.08,209.29,239.62,209.39,240.2z"/>
				</g>
				<g>
					<path class="st20" d="M245.64,245.13c-0.69-0.52-1.67-0.38-2.19,0.3c-0.52,0.69-0.38,1.67,0.31,2.19
						c0.69,0.52,1.67,0.38,2.19-0.3C246.47,246.63,246.33,245.65,245.64,245.13z"/>
					<path class="st20" d="M244.12,242.03c-0.34-0.26-0.83-0.19-1.09,0.15c-0.26,0.34-0.19,0.83,0.15,1.09s0.83,0.19,1.09-0.15
						C244.53,242.78,244.46,242.29,244.12,242.03z"/>
					<path class="st20" d="M247.69,242.73c-0.46-0.35-1.12-0.26-1.48,0.21s-0.26,1.12,0.21,1.48s1.12,0.26,1.48-0.21
						C248.24,243.74,248.15,243.08,247.69,242.73z"/>
				</g>
				<path class="st21" d="M220.23,250.94c0,0,6.37,4.71,17.1,0"/>
				<linearGradient id="SVGID_1_" gradientUnits="userSpaceOnUse" x1="224.109" y1="257.3516" x2="232.2792" y2="257.3516">
					<stop  offset="0" style="stop-color:#DB939B"/>
					<stop  offset="1" style="stop-color:#D5949B;stop-opacity:0"/>
				</linearGradient>
				<path class="st22" d="M232.28,257.35c0,0.99-1.83,1.79-4.09,1.79c-2.26,0-4.09-0.8-4.09-1.79c0-0.99,1.83-1.79,4.09-1.79
					C230.45,255.56,232.28,256.36,232.28,257.35z"/>
				<path class="st6" d="M244.97,221.92c8.52,4.42,14.54,4.21,7.47-0.22C245.38,217.27,240.56,219.63,244.97,221.92z"/>
				<path class="st6" d="M216.79,217.58c-9.62,1.69-15.4-0.35-7.19-2.49C217.81,212.95,221.77,216.7,216.79,217.58z"/>
				
					<linearGradient id="SVGID_2_" gradientUnits="userSpaceOnUse" x1="947.4962" y1="270.9094" x2="938.5791" y2="244.5323" gradientTransform="matrix(0.8893 0.4574 -0.4574 0.8893 -491.4686 -422.1998)">
					<stop  offset="0" style="stop-color:#DB939B"/>
					<stop  offset="1" style="stop-color:#D5949B;stop-opacity:0"/>
				</linearGradient>
				<path class="st23" d="M233.96,239.32l-3.72-8.12l-5.74,6.84c-1.43,1.7,1.55,2.27,1.55,2.27s-0.29,1.77,2.64,2.33
					c2.98,0.23,3.17-1.55,3.17-1.55S234.89,241.33,233.96,239.32z"/>
				<path class="st6" d="M198.81,230.32c-8.1-9.75,0.65-28.11,0.65-28.11l5.12-6.21l2.07-2.62c0,0,0.49,14.47-2.14,24.62
					C202.18,226.97,198.81,230.32,198.81,230.32z"/>
				<path class="st6" d="M261.21,240.33c10.5-7.11,10.34-28.31,10.34-28.31l-5.49-5.85l-3.85-3.11c0,0-2.42,13.68-2.65,24.99
					C259.39,235.88,261.21,240.33,261.21,240.33z"/>
				<path class="st6" d="M205.03,191.37c0,0-1.62,16.48,31.47,23.28l-2.64-8.45c0,0,7.47,17.01,38.46,15.96l-7.88-30.39l-46.32-7.39
					L205.03,191.37z"/>
			</g>
			<path class="st24" d="M213.85,232.24h-0.19c-1.37,0-2.48-1.12-2.48-2.48v-2.69c0-1.37,1.12-2.48,2.48-2.48h0.19
				c1.37,0,2.48,1.12,2.48,2.48v2.69C216.33,231.12,215.21,232.24,213.85,232.24z"/>
			<path class="st24" d="M244.62,237.54l-0.18-0.05c-1.31-0.37-2.09-1.75-1.72-3.06l0.73-2.59c0.37-1.31,1.75-2.09,3.06-1.72
				l0.18,0.05c1.31,0.37,2.09,1.75,1.72,3.06l-0.73,2.59C247.31,237.14,245.94,237.91,244.62,237.54z"/>
			<polygon class="st6" points="289.46,500 157.69,500 159.69,473.33 287.46,473.33 			"/>
			<polygon class="st25" points="287.46,473.33 158.69,486.67 159.69,473.33 			"/>
		</g>
		<g>
			<path class="st5" d="M119.78,293.93l-9.76,5.47c-1.28-1.97-2.12-3.74-2.53-5.32c-0.41-1.58-0.55-3.01-0.44-4.27
				c0.11-1.27,0.4-2.4,0.86-3.41c0.46-1,0.95-1.92,1.46-2.75c0.51-0.83,0.94-1.6,1.29-2.3c0.35-0.7,0.47-1.4,0.36-2.1
				c-0.06-0.42-0.24-0.84-0.56-1.26c-0.31-0.42-0.75-0.74-1.31-0.95c-0.56-0.22-1.25-0.28-2.08-0.18c-0.82,0.09-1.76,0.44-2.82,1.03
				c-0.69,0.39-1.48,0.91-2.36,1.57c-0.88,0.66-1.77,1.41-2.67,2.25c-0.89,0.84-1.74,1.74-2.54,2.68c-0.8,0.94-1.47,1.88-2.01,2.82
				l-7.62-10.61c0.47-0.82,1.03-1.71,1.68-2.67c0.64-0.95,1.4-1.91,2.28-2.87c0.88-0.96,1.89-1.91,3.03-2.86
				c1.14-0.94,2.44-1.83,3.91-2.65c2.37-1.33,4.79-2.26,7.27-2.78c2.48-0.53,4.86-0.6,7.15-0.21c2.29,0.39,4.42,1.25,6.39,2.59
				c1.97,1.34,3.62,3.21,4.97,5.62c1.03,1.83,1.59,3.44,1.69,4.84c0.1,1.4-0.05,2.68-0.46,3.85c-0.41,1.17-0.98,2.27-1.71,3.31
				c-0.73,1.04-1.41,2.12-2.05,3.22c-0.63,1.1-1.12,2.29-1.45,3.57C119.4,290.83,119.41,292.29,119.78,293.93z M125.5,300.74
				c0.48,0.85,0.75,1.73,0.84,2.64c0.08,0.92,0,1.8-0.24,2.66c-0.24,0.86-0.64,1.65-1.19,2.38c-0.55,0.73-1.24,1.32-2.07,1.79
				c-0.85,0.47-1.73,0.76-2.64,0.85c-0.91,0.09-1.79,0.02-2.65-0.22c-0.86-0.24-1.65-0.64-2.38-1.19c-0.73-0.55-1.33-1.25-1.81-2.1
				c-0.46-0.83-0.75-1.71-0.85-2.64c-0.1-0.93-0.03-1.82,0.21-2.68c0.24-0.86,0.64-1.65,1.18-2.39c0.55-0.74,1.25-1.35,2.09-1.82
				c0.83-0.46,1.7-0.74,2.62-0.82c0.92-0.08,1.8,0,2.66,0.24c0.86,0.24,1.66,0.64,2.41,1.21
				C124.43,299.22,125.03,299.92,125.5,300.74z"/>
		</g>
	</g>
	<g>
		<path class="st24" d="M375.38,225.89c-6.62,54.07,27.96,50.75,35.46,71.78c7.5,21.03-8.71,47.69-65.8,42.27
			c-57.09-5.42-69.02-41.14-69.44-63.62c-0.42-22.48,24.52-58.45,24.52-58.45L375.38,225.89z"/>
		<path class="st24" d="M296.56,221.88c-34.22,8.31-1.1-64.45,49.03-44c61.84,25.23,13.04,102.34-9.26,105.66
			c-22.29,3.33-13.98-11.16-13.98-11.16L296.56,221.88z"/>
		<path class="st26" d="M356.16,239.36c6.24,24.84,8.57,39.61,36.81,53.08c28.24,13.47,2.66,46.01,2.66,46.01l-66.48-34.61
			l-3.02-44.04L356.16,239.36z"/>
		<polygon class="st18" points="345.6,248.6 336.34,283.55 303,284.01 308.2,256.01 		"/>
		<path class="st20" d="M162.57,327.32c-5.76,9.96,7.78,22.22,27.95,24.04l8.86-5.6c0,0,4.73-7.01-4.17-14.05
			c-8.9-7.04-11.35-2.07-11.35-2.07L162.57,327.32z"/>
		<path class="st20" d="M195.21,331.71c-9.56-8.09-6.29-19.1-11.35-18.67c-5.06,0.43-1.42,17.83-1.42,17.83l6.03,3.6L195.21,331.71z
			"/>
		<linearGradient id="SVGID_3_" gradientUnits="userSpaceOnUse" x1="127.3571" y1="370.522" x2="210.7425" y2="286.4732">
			<stop  offset="0" style="stop-color:#F7F5F9"/>
			<stop  offset="1" style="stop-color:#EBE9ED;stop-opacity:0"/>
		</linearGradient>
		<polygon class="st27" points="157.19,308.18 201.48,222.5 275.59,294.43 190.46,341.96 		"/>
		<g>
			<g>
				<path class="st14" d="M152.66,308.14c-1.26,1.24-1.28,3.27-0.04,4.53l33.27,33.78c1.24,1.26,3.27,1.28,4.53,0.03
					c1.26-1.24,1.28-3.27,0.03-4.53l-33.27-33.78C155.95,306.92,153.92,306.9,152.66,308.14z"/>
			</g>
		</g>
		<polygon class="st20" points="373.16,476.7 362,481.05 354.17,459.48 358.37,456.24 374.26,459.01 		"/>
		<path class="st28" d="M297.49,290.19c-42,0.63-48.87,93.11-48.87,93.11s-18.31-33.88-34.79-32.05l-22.43,13.73
			c0,0-12.02,42.12,53.05,69.13c65.07,27.01,61.41-45.3,61.41-45.3L297.49,290.19z"/>
		<path class="st14" d="M330.8,290.19c0,0,38.56-0.33,45.19,10.65c19.54,32.33-25.81,151.9-25.81,151.9h-95.44l-3.48-58.16
			c0,0-30.36-21.34,11.43-65.12c20.88-21.87,34.8-39.27,34.8-39.27H330.8z"/>
		<path class="st14" d="M375.99,300.83c0,0,71.79,71.94,64.01,113.14c-7.78,41.2-54.02,64.55-66.84,62.72l-16.94-18.77
			c0,0-2.29-28.84,28.84-48.53c0,0-6.87-6.87,2.75-10.07l-25.18-25.64L375.99,300.83z"/>
		<line class="st29" x1="401.04" y1="396.91" x2="387.81" y2="399.32"/>
		<line class="st29" x1="394.42" y1="413.28" x2="385.06" y2="409.4"/>
		<path class="st29" d="M363.62,325.08c-9.62,26.51,1.34,50.99,1.34,50.99s-11.43-6.88-13.54-20.49"/>
		<path class="st14" d="M345.42,292.19c2.18-14.65-16.83-12.78-40.84-11.53c-24,1.25-8.42,18.7-8.42,18.7L345.42,292.19z"/>
		<path class="st7" d="M372.54,499.89H235.8c0,0,2.02-16.59,18.94-47.16h95.45C361.82,471.11,372.54,499.89,372.54,499.89z"/>
		<path class="st30" d="M372.54,499.89h-32.77c0,0-1.74-28.61-25.56-47.16h35.98C361.82,471.11,372.54,499.89,372.54,499.89z"/>
		<g>
			<line class="st19" x1="347.68" y1="470.59" x2="357.74" y2="465.56"/>
			<path class="st16" d="M342.68,468.61L342.68,468.61c-0.83-1.92,0.06-4.17,1.98-5.01l10.93-4.74c1.92-0.83,4.17,0.06,5.01,1.98
				l0,0c0.83,1.92-0.06,4.17-1.98,5.01l-10.93,4.73C345.76,471.42,343.51,470.53,342.68,468.61z"/>
			<path class="st16" d="M366.11,478.46c-0.36,0.32-0.79,0.57-1.27,0.73l-9.35,3.19c-1.98,0.68-4.15-0.38-4.83-2.36
				c-0.68-1.98,0.38-4.15,2.36-4.83l9.33-3.2c1.98-0.68,4.16,0.4,4.84,2.38C367.72,475.85,367.24,477.48,366.11,478.46z"/>
			<path class="st16" d="M367.76,480.81c-0.42-1.38-1.89-2.16-3.27-1.74l-6.5,1.98c-1.38,0.42-2.16,1.89-1.74,3.27
				c0.42,1.38,1.89,2.16,3.27,1.74l6.5-1.98C367.4,483.66,368.18,482.19,367.76,480.81z"/>
			<path class="st16" d="M346.5,475.41L346.5,475.41c-0.93-1.87-0.16-4.17,1.71-5.1l10.66-5.31c1.87-0.93,4.17-0.16,5.1,1.71h0
				c0.93,1.87,0.16,4.17-1.71,5.1l-10.66,5.31C349.73,478.06,347.43,477.29,346.5,475.41z"/>
			<line class="st19" x1="360.1" y1="472.89" x2="351.6" y2="477.12"/>
			<line class="st19" x1="357.99" y1="481.05" x2="362.95" y2="479.35"/>
			<line class="st19" x1="357.67" y1="465.3" x2="349.17" y2="469.53"/>
		</g>
		<path class="st29" d="M357.67,446.58c5.25,2.37,19.23,10.05,27.94,27.78"/>
		<path class="st29" d="M326.59,376.07c0,0-19.77,22.55-60.07,18.75c0,0,19.64,8.63,44.23,4.51"/>
		<path class="st28" d="M191.4,364.99c-8.95-7.44-3.86-11.96,2.09-15.64c5.94-3.68,12.68-15.71,20.35,1.91L191.4,364.99z"/>
		<path class="st16" d="M183.04,340.07h-2.87c1.18-0.54,2.01-1.73,2.01-3.11c0-1.89-1.54-3.43-3.43-3.43h-5.68
			c1.89,0,3.43-1.54,3.43-3.43c0-1.89-1.54-3.43-3.43-3.43h-11.5c-1.89,0-3.43,1.54-3.43,3.43c0,1.89,1.54,3.43,3.43,3.43h5.68
			c-1.89,0-3.43,1.54-3.43,3.43c0,1.89,1.54,3.43,3.43,3.43h5.12c-0.91,0.47-1.54,1.4-1.54,2.48c0,1.54,1.26,2.8,2.8,2.8h9.39
			c1.54,0,2.8-1.26,2.8-2.8C185.84,341.33,184.58,340.07,183.04,340.07z"/>
		<line class="st31" x1="166.44" y1="333.53" x2="174.1" y2="333.53"/>
		<line class="st31" x1="173.2" y1="340.16" x2="180.86" y2="340.16"/>
		<path class="st16" d="M185.86,349.84h-6.22c-1.15,0-2.09-0.94-2.09-2.09l0,0c0-1.15,0.94-2.09,2.09-2.09h6.22
			c1.15,0,2.09,0.94,2.09,2.09l0,0C187.95,348.91,187.01,349.84,185.86,349.84z"/>
		<line class="st29" x1="197.74" y1="361.1" x2="213.83" y2="351.25"/>
		<path class="st29" d="M298.25,299.06c12.77,6.03,43.31-4.63,43.31-4.63"/>
		<path class="st16" d="M337.01,256c-7.1,14.79-20.55,20.59-33.01,17.97c-10.53-2.22-19.13-11.59-16.39-32.81
			c0.01-0.1,0.01-0.21,0.04-0.31c1.91-6.13,7.87-12.22,9.31-20.91c0.41-2.48-1.64-4.5-1.9-5.65c1.25-3.2,2.67-6.55,4.27-10.06
			l44.48,13.52C343.83,217.75,344.1,241.22,337.01,256z"/>
		<linearGradient id="SVGID_4_" gradientUnits="userSpaceOnUse" x1="293.1622" y1="260.1808" x2="299.8415" y2="260.1808">
			<stop  offset="0" style="stop-color:#DB939B"/>
			<stop  offset="1" style="stop-color:#D5949B;stop-opacity:0"/>
		</linearGradient>
		<path class="st32" d="M299.84,260.18c0,0.8-1.5,1.44-3.34,1.44c-1.84,0-3.34-0.65-3.34-1.44c0-0.8,1.5-1.44,3.34-1.44
			C298.35,258.74,299.84,259.38,299.84,260.18z"/>
		<path class="st24" d="M333.7,215.71c-12.51,29.44,4.6,35.36,4.6,35.36l11.15-18.93l10.01-18.91l-22.02-1.65L333.7,215.71z"/>
		<g>
			<path class="st16" d="M341.09,238.26c5.36-8.17,12.2-8.54,15.07,1.1c2.88,9.64-6.53,17.6-14.21,14.69
				C334.27,251.13,341.09,238.26,341.09,238.26z"/>
			<path class="st18" d="M347.27,238.58c3.58-0.78,5.78,9.88-2.1,10.5l1.5-3.79l-1.63-3.06L347.27,238.58z"/>
			<path class="st19" d="M343.83,250.36c4.59-4.92,1.26-8.33,1.26-8.33s4.36-8.99,6.13-2.11"/>
		</g>
		<path class="st24" d="M308.86,222.29c10.04,5.02,17.07,4.68,8.73-0.38C309.25,216.85,303.66,219.69,308.86,222.29"/>
		<path class="st24" d="M309.76,236.32l-0.58-0.02c-1.36-0.05-2.44-1.2-2.39-2.57l0.12-3.27c0.05-1.36,1.2-2.44,2.57-2.39l0.58,0.02
			c1.36,0.05,2.44,1.2,2.39,2.57l-0.12,3.27C312.28,235.29,311.13,236.37,309.76,236.32z"/>
		<g>
			<path class="st20" d="M313.57,243.8c0.26,1.61,1.78,2.7,3.39,2.44c1.61-0.26,2.7-1.78,2.44-3.39c-0.26-1.61-1.78-2.7-3.39-2.44
				C314.4,240.68,313.31,242.2,313.57,243.8z"/>
			<path class="st20" d="M311.62,250.01c0.13,0.8,0.88,1.34,1.68,1.21c0.8-0.13,1.34-0.88,1.21-1.68c-0.13-0.8-0.88-1.34-1.68-1.21
				C312.03,248.46,311.49,249.21,311.62,250.01z"/>
			<path class="st20" d="M307.66,244.42c0.18,1.08,1.2,1.82,2.28,1.64s1.82-1.2,1.64-2.28c-0.18-1.08-1.2-1.82-2.28-1.64
				C308.22,242.32,307.48,243.34,307.66,244.42z"/>
		</g>
		<path class="st24" d="M291.85,222.5c8.69,1,24.23-13.37,24.23-13.37s-3.81,17.28,17.61,6.58c21.42-10.71-3.16-15.25-3.16-15.25
			l-31.2-7.02l-13.43,14.81L291.85,222.5z"/>
		<path class="st16" d="M301.98,232.19l-8.31,13.43c0,0-3.21-0.26-6.45-1c-0.01,0.01-0.01,0-0.02,0c-0.06-0.01-0.09-0.02-0.09-0.02
			c-3.49-0.8-6.96-2.16-6.43-4.33c0.02-0.09,0.05-0.19,0.09-0.28c1.48-4.27,13.42-11.86,15.79-18.11L301.98,232.19z"/>
		<linearGradient id="SVGID_5_" gradientUnits="userSpaceOnUse" x1="280.6261" y1="242.16" x2="289.1811" y2="242.16">
			<stop  offset="0" style="stop-color:#DB939B"/>
			<stop  offset="1" style="stop-color:#D5949B;stop-opacity:0"/>
		</linearGradient>
		<path class="st33" d="M287.22,244.62c-0.01,0.01-0.01,0-0.02,0c-0.06-0.01-0.09-0.02-0.09-0.02c-3.49-0.8-6.96-2.16-6.43-4.33
			c0.02-0.09,0.05-0.19,0.09-0.28c4.11-1.13,7.29,1.19,8.26,3.24C289.62,244.46,288.37,244.67,287.22,244.62z"/>
		<path class="st21" d="M291.3,254.06c0,0,3.98,4.71,10.68,0"/>
	</g>
	<circle class="st5" cx="639.24" cy="64.25" r="22.42"/>
	<g>
		<path class="st16" d="M423.85,366.74C405.96,435.18,419.33,500,419.33,500h37.87l14.26-141.27L423.85,366.74z"/>
		<g>
			<path class="st34" d="M509.79,165.95c-15.05-1.46-23.03-10.64-20.85-15.36c2.18-4.72,17.84,10.72,17.84,10.72L509.79,165.95z"/>
			<path class="st34" d="M557.92,163.85c11.4-9.94,23.55-9.43,25.49-4.61c1.94,4.82-20.04,5.6-20.04,5.6L557.92,163.85z"/>
			<path class="st34" d="M553.9,168.15c17.45-9.08,32.65-4.73,33.62,1.96c0.98,6.69-27.05,0.96-27.05,0.96L553.9,168.15z"/>
			<polygon class="st16" points="546.36,259.86 508.85,259.86 509.22,254.45 509.22,254.44 510.45,236.09 512.2,209.91 
				544.13,209.91 545.47,239.95 545.47,239.96 545.5,240.65 			"/>
			<path class="st18" d="M546.23,240.04c0,0-0.26,0.22-0.73,0.61c-3.67,3.04-20.69,16.25-36.28,13.79v-0.01l1.23-18.35l35.02,3.86
				v0.01L546.23,240.04z"/>
			<path class="st34" d="M506.09,161.4c-6.89-18.42-0.72-32.98,6.04-33.13c6.76-0.16-2.34,26.96-2.34,26.96L506.09,161.4z"/>
			<path class="st34" d="M509.79,155.23l-1.77,7.4l-0.69,2.87l-3.37,14.08l-5.76,24.02l-0.6,2.51c0,0.01,0,0.01,0,0.01
				s-8.52-6.03-10.48-21.75c-0.26-1.96-0.4-4.08-0.41-6.36c-0.01-2.59,0.18-5.02,0.56-7.3c2.34-14.46,11.85-22.13,20.33-17.09
				C508.34,154.06,509.07,154.59,509.79,155.23z"/>
			<path class="st34" d="M574.63,190.83c-1.81,7.6-5.75,15.97-14.01,21.97l-0.39-0.06l-62.04-9.15l-0.64-0.1l-0.49-0.07
				c-4.41-5.43-5.25-14.01-5-21.11c0.07-1.65,0.18-3.23,0.32-4.66h-0.01c0.31-3.85,0.83-7.18,1.52-10.03
				c2.47-10.17,7.23-14.3,13.68-13.99c0,0,0-0.01,0.01,0c2.99,0.12,6.35,1.21,10.02,3.08c0.97,0.49,1.95,1.04,2.97,1.64l17.76-7.64
				l27.26,15.47l10.04,5.69c0,0,0.02,0.12,0.06,0.37C575.92,173.98,576.76,181.88,574.63,190.83z"/>
			<g>
				<g>
					<path class="st16" d="M562.06,210.39c7.72-5.52,14.05-3.46,13.27,6.28c-0.78,9.74-12.09,13.65-18.03,8.32
						C551.36,219.66,562.06,210.39,562.06,210.39z"/>
					<path class="st18" d="M567.55,212.67c3.64,0.5,2.02,11.31-5.61,9.16l2.73-3.06l-0.47-3.45L567.55,212.67z"/>
					<path class="st19" d="M560.3,222.32c5.89-2.84,4.07-7.1,4.07-7.1s7.11-6.62,6.3,0.24"/>
				</g>
				<g>
					<path class="st16" d="M497.06,203.42c-5.71-7.58-12.36-7.51-14.54,2.01c-2.18,9.53,7.44,16.65,14.7,13.35
						C504.49,215.48,497.06,203.42,497.06,203.42z"/>
					<path class="st18" d="M491.14,203.95c-3.62-0.61-5.32,10.18,2.61,10.43l-1.68-3.73l1.49-3.15L491.14,203.95z"/>
					<path class="st19" d="M495.17,215.33c-4.76-4.48-1.75-8-1.75-8s-4.79-8.45-6.08-1.66"/>
				</g>
				<path class="st16" d="M564.99,187.37l-0.08,0.72c-0.87,7.4-2.23,15.78-4.46,23.88c-1.11,4.14-2.46,8.2-4.07,12.01
					c-1.13,2.75-2.41,5.35-3.85,7.77c-0.44,0.74-0.89,1.47-1.36,2.17c-0.31,0.48-0.64,0.96-0.97,1.42
					c-0.46,0.63-0.91,1.24-1.38,1.81c-0.32,0.42-0.66,0.81-1.01,1.19c-0.17,0.21-0.34,0.4-0.52,0.59c-0.35,0.38-0.7,0.76-1.06,1.11
					c-0.47,0.48-0.96,0.93-1.46,1.37c-0.47,0.42-0.95,0.8-1.44,1.18c-0.11,0.1-0.23,0.18-0.35,0.27c-0.42,0.32-0.86,0.63-1.31,0.92
					c-0.28,0.18-0.54,0.34-0.82,0.51c-0.45,0.27-0.92,0.53-1.38,0.76c-0.22,0.12-0.46,0.24-0.7,0.34c-0.17,0.09-0.34,0.17-0.51,0.23
					c-0.29,0.13-0.59,0.26-0.9,0.38c-0.3,0.11-0.61,0.22-0.91,0.33c-0.3,0.11-0.62,0.2-0.94,0.3c-0.32,0.11-0.63,0.19-0.95,0.26
					c-0.33,0.09-0.65,0.17-0.98,0.23c-0.2,0.06-0.41,0.1-0.63,0.12c-0.26,0.05-0.53,0.1-0.79,0.14c-0.21,0.02-0.43,0.06-0.64,0.09
					c-0.56,0.07-1.14,0.11-1.73,0.14c-0.81,0.04-1.64,0.04-2.47,0c-0.37-0.01-0.75-0.04-1.12-0.06l-0.02,0
					c-1.25-0.11-2.52-0.28-3.83-0.56c-11.76-2.41-18.34-10.5-21.72-20.88c-0.85-2.62-1.51-5.39-1.98-8.25
					c-0.73-4.36-1.06-8.95-1.1-13.54c-0.08-8.91,0.92-17.85,2.17-25.48c1.33-8.18,7.04-14.59,14.39-17.19
					c3.06-1.09,6.42-1.52,9.87-1.13l21.54,2.43C557.64,164.32,566.37,175.25,564.99,187.37z"/>
				<g>
					<path class="st20" d="M510.64,212.64c-0.01,1.2-0.98,2.16-2.18,2.16c-1.2-0.01-2.16-0.98-2.16-2.18
						c0.01-1.2,0.98-2.16,2.18-2.16C509.68,210.47,510.65,211.44,510.64,212.64z"/>
					<path class="st20" d="M512.76,216.92c0,0.59-0.49,1.07-1.08,1.07c-0.59,0-1.07-0.49-1.07-1.08c0-0.59,0.49-1.07,1.08-1.07
						C512.29,215.84,512.77,216.33,512.76,216.92z"/>
					<path class="st20" d="M515,212.41c0,0.81-0.66,1.46-1.47,1.45c-0.81,0-1.46-0.66-1.45-1.47s0.66-1.46,1.47-1.45
						C514.36,210.95,515.01,211.61,515,212.41z"/>
				</g>
				<g>
					<path class="st20" d="M545.59,217.01c-0.24,1.17,0.51,2.32,1.69,2.56c1.17,0.24,2.32-0.51,2.56-1.69
						c0.24-1.17-0.51-2.32-1.69-2.56C546.98,215.09,545.83,215.84,545.59,217.01z"/>
					<path class="st20" d="M542.62,220.76c-0.12,0.58,0.25,1.15,0.84,1.27c0.58,0.12,1.15-0.25,1.27-0.83
						c0.12-0.58-0.25-1.15-0.84-1.27C543.31,219.8,542.74,220.18,542.62,220.76z"/>
					<path class="st20" d="M541.37,215.88c-0.16,0.79,0.35,1.56,1.13,1.72s1.56-0.35,1.72-1.13c0.16-0.79-0.35-1.56-1.13-1.72
						C542.3,214.59,541.53,215.1,541.37,215.88z"/>
				</g>
				<path class="st24" d="M517.81,188.24c-11.7,1.82-18.66-0.79-8.65-3.19C519.16,182.65,523.88,187.3,517.81,188.24z"/>
				<path class="st24" d="M544.12,190.5c10.58,5.54,18.08,5.32,9.3-0.23C544.65,184.72,538.64,187.63,544.12,190.5z"/>
				<path class="st24" d="M513.71,202.89h-0.58c-1.37,0-2.48-1.12-2.48-2.48v-3.27c0-1.37,1.12-2.48,2.48-2.48h0.58
					c1.37,0,2.48,1.12,2.48,2.48v3.27C516.19,201.77,515.08,202.89,513.71,202.89z"/>
				<path class="st24" d="M545.47,206.92l-0.55-0.16c-1.31-0.39-2.07-1.77-1.68-3.08l0.93-3.14c0.39-1.31,1.77-2.07,3.08-1.68
					l0.55,0.16c1.31,0.39,2.07,1.77,1.68,3.08l-0.92,3.14C548.17,206.55,546.78,207.31,545.47,206.92z"/>
				<circle class="st6" cx="528.01" cy="228.78" r="5.08"/>
				
					<linearGradient id="SVGID_6_" gradientUnits="userSpaceOnUse" x1="659.7188" y1="150.8726" x2="670.7623" y2="124.5121" gradientTransform="matrix(0.9744 -0.2248 0.2248 0.9744 -148.9318 222.7022)">
					<stop  offset="0" style="stop-color:#DB939B"/>
					<stop  offset="1" style="stop-color:#D5949B;stop-opacity:0"/>
				</linearGradient>
				<path class="st35" d="M535.37,212.24l-5.03-9.99l-6.87,8.83c-1.72,2.19,2.05,2.78,2.05,2.78s-0.28,2.23,3.41,2.8
					c3.74,0.15,3.89-2.09,3.89-2.09S536.63,214.72,535.37,212.24z"/>
				<path class="st36" d="M497.07,203.43"/>
				<path class="st36" d="M608.37,202.63l-0.39-0.29l0.02,0C608.13,202.43,608.26,202.53,608.37,202.63z"/>
			</g>
			<path class="st37" d="M493.26,169.96"/>
			<path class="st34" d="M505.36,164.55c-11.01-10.37-11.69-22.51-7.08-24.91c4.61-2.4,7.54,19.4,7.54,19.4L505.36,164.55z"/>
			<path class="st7" d="M597.31,374.32L607.91,500h-162.2l1.37-16.29l2.27-26.84l6.96-82.55l-45.43-10.6
				c0,0,18.36-53.03,24.23-69.83c4.04-11.51,18.02-20.1,32.16-26.07c6.18-2.62,12.41-4.73,17.82-6.35c0.1-0.03,0.19-0.06,0.29-0.09
				c2.32-0.69,4.65-1.31,7.02-1.83c7.1-1.55,14.36-2.33,21.66-2.33h25.5c7.44,0,14.86,0.81,22.13,2.46c2.22,0.5,4.43,1.08,6.62,1.74
				c2.66,0.79,5.51,1.71,8.47,2.75c5.36,1.86,11.04,4.12,16.44,6.8c11.57,5.71,21.92,13.3,25.28,22.93
				c5.88,16.8,24.23,69.83,24.23,69.83L597.31,374.32z"/>
			<polyline class="st38" points="606.53,342.23 597.3,374.32 593.76,308.78 			"/>
			<polyline class="st38" points="462.78,313.62 456.31,374.32 447.75,348.74 			"/>
			<polyline class="st39" points="440.32,421.42 451.66,429.46 440.32,434.46 			"/>
			<path class="st16" d="M561.7,259.67c-3.68,5.54-14.46,18.54-34.61,18.54c-20.29,0-31.08-13.19-34.68-18.66
				c7.1-1.55,14.36-2.33,21.66-2.33h25.5C547.01,257.22,554.43,258.03,561.7,259.67z"/>
			<path class="st38" d="M501.83,279.97c0,0,29.11,17.84,52.87-1.76"/>
			<path class="st38" d="M497.03,443.43h76.82c0,0-66.74,23.04-95.37,15.3"/>
			<path class="st34" d="M527.61,160.92c0,0,35.54-25.98,23.23-39c-12.31-13.02-33.65,7.84-42,31.41l-2.75,8.26l20.4-2.82
				L527.61,160.92z"/>
			<path class="st40" d="M514.11,161.64c13.49-20.76,39.98-38.56,63.25-30.27c13.74,4.89,8.53,36.02-23.84,36.75
				C521.15,168.84,514.11,161.64,514.11,161.64z"/>
			<path class="st6" d="M574.63,190.83c-2.78-1.72-6-3.27-9.54-4.65c-17.3-6.74-42.25-9.33-61.13-6.6
				c-1.54,0.22-3.02,0.48-4.48,0.77c-2.65,0.54-5.13,1.18-7.41,1.96c-1.79,0.6-3.45,1.28-4.95,2.05c-0.26-1.96-0.4-4.08-0.41-6.36
				c-0.01-2.59,0.18-5.02,0.56-7.3c2.24-1.13,4.46-2.15,6.64-3.09c4.88-2.09,9.59-3.74,14.12-4.99c2.21-0.63,4.36-1.15,6.48-1.57
				h0.01c21.66-4.5,38.85-0.21,50.64,5.24c4.22,1.94,7.75,4.04,10.55,5.93C575.92,173.98,576.76,181.88,574.63,190.83z"/>
		</g>
		<path class="st14" d="M593.22,270.96c-76.8,173.17-146.14,212.75-146.14,212.75l2.27-26.84c0,0,58.05-46.35,127.43-192.71
			C582.14,266.02,587.82,268.28,593.22,270.96z"/>
		<linearGradient id="SVGID_7_" gradientUnits="userSpaceOnUse" x1="536.9392" y1="456.8882" x2="536.9392" y2="293.8319">
			<stop  offset="0" style="stop-color:#F7F5F9"/>
			<stop  offset="1" style="stop-color:#EBE9ED;stop-opacity:0"/>
		</linearGradient>
		<path class="st41" d="M511.13,357.06l-48.34-109.41c0,0,36.71-30.92,106.63-9.39c69.92,21.53,30.73,21.61,30.73,21.61
			l-50.38,99.75L511.13,357.06z"/>
		<g>
			<path class="st16" d="M638.43,430.76c0.49,33.19-40.03,28.39-59.07,3.69c-12.87-16.68-23.42-40.3-28.9-53.83
				c-2.46-6.05-3.89-10.1-4.07-10.61c-0.01-0.03-0.02-0.06-0.02-0.06l6.05-6.95l6.77-7.79l0.1,0.1v0.01l7.76,7.93l32.11,32.9
				l-1.84-21.84l36.7-8.57C634.01,365.75,637.94,397.56,638.43,430.76z"/>
			<polygon class="st18" points="634.02,365.75 598.02,381.89 597.3,374.32 			"/>
			<g>
				<g>
					<g>
						<path class="st18" d="M557.17,347.5c-0.13-6.18,2.46-25.31-1.78-27.39c-4.23-2.09-6.97,11.81-6.97,11.81l2.48,16.96
							L557.17,347.5z"/>
					</g>
					<path class="st6" d="M547.39,303.22l-26.5-1.75c-3.35-0.22-6.25,2.32-6.47,5.67l-3.3,49.92c-0.22,3.35,2.32,6.25,5.67,6.47
						l26.5,1.75c3.35,0.22,6.25-2.32,6.47-5.67l3.3-49.92C553.28,306.34,550.75,303.44,547.39,303.22z"/>
					<circle class="st14" cx="533.46" cy="314.94" r="3.77"/>
					<g>
						<g>
							
								<rect x="539.74" y="331.04" transform="matrix(0.406 -0.9139 0.9139 0.406 11.3994 694.5383)" class="st20" width="0.51" height="14.92"/>
						</g>
						<g>
							<path class="st16" d="M530.38,329.84l1.19-2.34c0.94-1.83,3.2-2.56,5.03-1.63l16.41,8.39c1.83,0.94,2.56,3.2,1.63,5.03
								l-1.19,2.34c-0.94,1.83-3.2,2.56-5.03,1.63l-16.41-8.39C530.18,333.94,529.45,331.67,530.38,329.84z"/>
						</g>
						<g>
							<path class="st16" d="M540.67,360.99c-0.63-0.1-1.25-0.33-1.82-0.69l-11.15-6.87c-2.37-1.46-3.11-4.57-1.66-6.94
								c1.46-2.37,4.57-3.11,6.94-1.66l11.16,6.85c2.37,1.46,3.11,4.6,1.65,6.97C544.7,360.42,542.63,361.31,540.67,360.99z"/>
						</g>
						<path class="st16" d="M559.18,355.21l-1.81,2.23l-10.28,12.74c0,0-0.26-0.06-0.71-0.18c-0.07-0.01-0.13-0.03-0.21-0.04
							c-1.85-0.5-6.13-1.75-9.68-3.72c-6.07-3.36-7.96-4.85-9.17-5.6c-1.6-1.05-2.03-3.23-0.97-4.81c1.05-1.6,3.23-2.04,4.81-0.98
							l5.01,3.31l3.01-16.91l15.09-4.84L559.18,355.21z"/>
						<g>
							<path class="st16" d="M526.7,339.53l1.07-2.4c0.84-1.88,3.06-2.73,4.93-1.89l16.83,7.5c1.88,0.84,2.73,3.06,1.89,4.93
								l-1.07,2.4c-0.84,1.88-3.06,2.73-4.93,1.89l-16.83-7.5C526.72,343.63,525.87,341.41,526.7,339.53z"/>
						</g>
						<g>
							<polygon class="st20" points="529.69,345.24 541.19,350.36 541.4,349.89 529.9,344.77 							"/>
						</g>
						<g>
							<polygon class="st20" points="536.96,358.73 537.23,358.29 531.3,354.64 531.03,355.07 							"/>
						</g>
						<g>
							<polygon class="st20" points="535.42,336.34 546.92,341.46 547.13,340.99 535.62,335.87 							"/>
						</g>
					</g>
				</g>
				<polygon class="st16" points="571.36,368.72 555,385.56 551.76,379.26 547.1,370.19 557.38,357.44 557.44,357.38 559.18,355.21 
					559.28,355.31 559.28,355.32 566.73,363.58 				"/>
			</g>
			<polyline class="st39" points="606.53,406.08 599.15,396.15 609.24,396.15 			"/>
		</g>
		<polygon class="st18" points="421.99,374.32 456.31,374.32 423.85,366.74 		"/>
		<path class="st6" d="M449.35,456.87c-31.86,2.34-43.72,28.44-46.39,43.13h42.75L449.35,456.87z"/>
		<g>
			<path class="st5" d="M615.32,233.33l-9.92-5.18c0.95-2.15,1.97-3.82,3.07-5.03c1.1-1.21,2.21-2.11,3.34-2.7
				c1.12-0.6,2.23-0.98,3.32-1.14c1.09-0.16,2.13-0.26,3.1-0.29c0.97-0.03,1.85-0.09,2.63-0.18c0.78-0.09,1.43-0.37,1.95-0.85
				c0.32-0.28,0.57-0.67,0.75-1.16c0.18-0.49,0.21-1.03,0.08-1.62c-0.13-0.59-0.45-1.2-0.98-1.84c-0.53-0.64-1.33-1.24-2.4-1.8
				c-0.7-0.37-1.57-0.74-2.61-1.12c-1.04-0.38-2.15-0.71-3.35-1c-1.19-0.29-2.4-0.51-3.63-0.66c-1.23-0.15-2.38-0.2-3.46-0.14
				l4.71-12.18c0.95-0.05,2-0.07,3.15-0.06c1.15,0.01,2.37,0.13,3.65,0.34c1.29,0.21,2.63,0.53,4.05,0.97
				c1.41,0.44,2.86,1.05,4.35,1.82c2.41,1.26,4.51,2.78,6.3,4.56c1.8,1.78,3.16,3.74,4.09,5.87c0.93,2.13,1.37,4.38,1.33,6.76
				c-0.05,2.38-0.71,4.79-1.98,7.24c-0.97,1.86-2.01,3.21-3.13,4.06c-1.12,0.85-2.27,1.42-3.47,1.72c-1.2,0.3-2.44,0.42-3.71,0.38
				c-1.27-0.04-2.54-0.03-3.82,0.04c-1.27,0.07-2.53,0.32-3.78,0.73C617.71,231.31,616.49,232.12,615.32,233.33z M612.74,241.84
				c-0.45,0.86-1.03,1.58-1.75,2.15c-0.72,0.57-1.51,0.99-2.36,1.25c-0.85,0.27-1.73,0.37-2.64,0.3c-0.91-0.07-1.79-0.32-2.63-0.76
				c-0.86-0.45-1.58-1.03-2.15-1.74c-0.58-0.71-1-1.49-1.26-2.34c-0.27-0.85-0.37-1.73-0.3-2.64c0.07-0.91,0.32-1.8,0.77-2.66
				c0.44-0.84,1.02-1.56,1.74-2.15c0.72-0.59,1.51-1.02,2.35-1.29c0.85-0.27,1.73-0.37,2.65-0.32c0.92,0.06,1.81,0.31,2.67,0.76
				c0.84,0.44,1.55,1.02,2.12,1.74c0.57,0.72,0.99,1.51,1.26,2.35c0.27,0.85,0.37,1.74,0.3,2.68
				C613.43,240.11,613.18,241,612.74,241.84z"/>
		</g>
	</g>
</g>
</svg>
