<?xml version="1.0" encoding="utf-8"?>
<!-- Generator: Adobe Illustrator 24.0.1, SVG Export Plug-In . SVG Version: 6.00 Build 0)  -->
<svg version="1.1" xmlns="http://www.w3.org/2000/svg" xmlns:xlink="http://www.w3.org/1999/xlink" x="0px" y="0px"
	 viewBox="0 0 750 500" style="enable-background:new 0 0 750 500;" xml:space="preserve">
<style type="text/css">
	.st0{fill:none;}
	.st1{fill:none;stroke:#231F20;stroke-width:0.72;}
	.st2{fill:#FFFFFF;}
	.st3{fill:#F0F5F7;}
	.st4{fill:#F9FBFC;}
	.st5{fill:url(#SVGID_1_);}
	.st6{clip-path:url(#SVGID_3_);fill:#DCE8EF;}
	.st7{fill:#56548C;}
	.st8{fill:#FBD15B;}
	.st9{fill:#112B46;}
	.st10{fill:#0A1723;}
	.st11{fill:#DCE8EF;}
	.st12{fill:#EFCAD4;}
	.st13{fill:url(#SVGID_4_);}
	.st14{fill:url(#SVGID_5_);}
	.st15{fill:url(#SVGID_6_);}
	.st16{fill:url(#SVGID_7_);}
	.st17{fill:#C3D3DD;}
	.st18{fill:none;stroke:#FBD15B;stroke-width:3;stroke-linecap:round;stroke-linejoin:round;stroke-miterlimit:10;}
	.st19{fill:none;stroke:#FBD15B;stroke-width:5;stroke-linecap:round;stroke-linejoin:round;stroke-miterlimit:10;}
	.st20{fill:#6D7EF7;}
	.st21{fill:#738AF9;}
	.st22{fill:url(#SVGID_8_);}
	.st23{opacity:0.3;fill:url(#_x31_0_lpi_10_x25_);}
	.st24{fill:url(#SVGID_9_);}
	.st25{fill:url(#SVGID_10_);}
	.st26{fill:#EF3F65;}
	.st27{fill:#FFC8AF;}
	.st28{fill:#F4B298;}
	.st29{fill:url(#SVGID_11_);}
	.st30{fill:#1A1754;}
	.st31{fill:url(#SVGID_12_);}
	.st32{fill:url(#SVGID_13_);}
	.st33{fill:#A5B7C6;}
	.st34{fill:url(#SVGID_14_);}
	.st35{fill:url(#SVGID_15_);}
	.st36{fill:url(#SVGID_16_);}
	.st37{fill:url(#SVGID_17_);}
	.st38{fill:url(#SVGID_18_);}
	.st39{fill:url(#SVGID_19_);}
	.st40{fill:url(#SVGID_20_);}
	.st41{fill:url(#SVGID_21_);}
	.st42{fill:url(#SVGID_22_);}
	.st43{font-family:'AvocadoCreamy';}
	.st44{font-size:27.6239px;}
	.st45{fill:url(#SVGID_23_);}
	.st46{fill:url(#SVGID_24_);}
</style>
<pattern  x="249" y="-150" width="72" height="72" patternUnits="userSpaceOnUse" id="_x31_0_lpi_10_x25_" viewBox="72.25 -72 72 72" style="overflow:visible;">
	<g>
		<rect id="XMLID_221_" x="72.25" y="-72" class="st0" width="72" height="72"/>
		<g id="XMLID_210_">
			<line id="XMLID_220_" class="st1" x1="144" y1="-3.6" x2="216.5" y2="-3.6"/>
			<line id="XMLID_219_" class="st1" x1="144" y1="-18" x2="216.5" y2="-18"/>
			<line id="XMLID_218_" class="st1" x1="144" y1="-32.4" x2="216.5" y2="-32.4"/>
			<line id="XMLID_217_" class="st1" x1="144" y1="-46.8" x2="216.5" y2="-46.8"/>
			<line id="XMLID_216_" class="st1" x1="144" y1="-61.2" x2="216.5" y2="-61.2"/>
			<line id="XMLID_215_" class="st1" x1="144" y1="-10.8" x2="216.5" y2="-10.8"/>
			<line id="XMLID_214_" class="st1" x1="144" y1="-25.2" x2="216.5" y2="-25.2"/>
			<line id="XMLID_213_" class="st1" x1="144" y1="-39.6" x2="216.5" y2="-39.6"/>
			<line id="XMLID_212_" class="st1" x1="144" y1="-54" x2="216.5" y2="-54"/>
			<line id="XMLID_211_" class="st1" x1="144" y1="-68.4" x2="216.5" y2="-68.4"/>
		</g>
		<g id="XMLID_199_">
			<line id="XMLID_209_" class="st1" x1="72" y1="-3.6" x2="144.5" y2="-3.6"/>
			<line id="XMLID_208_" class="st1" x1="72" y1="-18" x2="144.5" y2="-18"/>
			<line id="XMLID_207_" class="st1" x1="72" y1="-32.4" x2="144.5" y2="-32.4"/>
			<line id="XMLID_206_" class="st1" x1="72" y1="-46.8" x2="144.5" y2="-46.8"/>
			<line id="XMLID_205_" class="st1" x1="72" y1="-61.2" x2="144.5" y2="-61.2"/>
			<line id="XMLID_204_" class="st1" x1="72" y1="-10.8" x2="144.5" y2="-10.8"/>
			<line id="XMLID_203_" class="st1" x1="72" y1="-25.2" x2="144.5" y2="-25.2"/>
			<line id="XMLID_202_" class="st1" x1="72" y1="-39.6" x2="144.5" y2="-39.6"/>
			<line id="XMLID_201_" class="st1" x1="72" y1="-54" x2="144.5" y2="-54"/>
			<line id="XMLID_200_" class="st1" x1="72" y1="-68.4" x2="144.5" y2="-68.4"/>
		</g>
		<g id="XMLID_188_">
			<line id="XMLID_198_" class="st1" x1="0" y1="-3.6" x2="72.5" y2="-3.6"/>
			<line id="XMLID_197_" class="st1" x1="0" y1="-18" x2="72.5" y2="-18"/>
			<line id="XMLID_196_" class="st1" x1="0" y1="-32.4" x2="72.5" y2="-32.4"/>
			<line id="XMLID_195_" class="st1" x1="0" y1="-46.8" x2="72.5" y2="-46.8"/>
			<line id="XMLID_194_" class="st1" x1="0" y1="-61.2" x2="72.5" y2="-61.2"/>
			<line id="XMLID_193_" class="st1" x1="0" y1="-10.8" x2="72.5" y2="-10.8"/>
			<line id="XMLID_192_" class="st1" x1="0" y1="-25.2" x2="72.5" y2="-25.2"/>
			<line id="XMLID_191_" class="st1" x1="0" y1="-39.6" x2="72.5" y2="-39.6"/>
			<line id="XMLID_190_" class="st1" x1="0" y1="-54" x2="72.5" y2="-54"/>
			<line id="XMLID_189_" class="st1" x1="0" y1="-68.4" x2="72.5" y2="-68.4"/>
		</g>
	</g>
</pattern>
<g id="BACKGROUND">
	<g>
		<rect class="st2" width="750" height="500"/>
		<g>
			<g>
				<rect y="412.66" class="st3" width="750" height="22.08"/>
				<rect y="427.6" class="st4" width="750" height="72.4"/>
				<g>
					<g>
						<g>
							<rect x="41.15" class="st3" width="1" height="412.66"/>
						</g>
						<g>
							<rect x="92.43" class="st3" width="1" height="412.66"/>
						</g>
						<g>
							<rect x="143.72" class="st3" width="1" height="412.66"/>
						</g>
						<g>
							<rect x="195" class="st3" width="1" height="412.66"/>
						</g>
						<g>
							<rect x="246.29" class="st3" width="1" height="412.66"/>
						</g>
						<g>
							<rect x="297.57" class="st3" width="1" height="412.66"/>
						</g>
						<g>
							<rect x="348.86" class="st3" width="1" height="412.66"/>
						</g>
						<g>
							<rect x="400.14" class="st3" width="1" height="412.66"/>
						</g>
						<g>
							<rect x="451.43" class="st3" width="1" height="412.66"/>
						</g>
						<g>
							<rect x="502.71" class="st3" width="1" height="412.66"/>
						</g>
						<g>
							<rect x="554" class="st3" width="1" height="412.66"/>
						</g>
						<g>
							<rect x="605.28" class="st3" width="1" height="412.66"/>
						</g>
						<g>
							<rect x="656.57" class="st3" width="1" height="412.66"/>
						</g>
						<g>
							<rect x="707.85" class="st3" width="1" height="412.66"/>
						</g>
					</g>
				</g>
			</g>
			<g>
				<linearGradient id="SVGID_1_" gradientUnits="userSpaceOnUse" x1="261.21" y1="70.0344" x2="261.21" y2="283.5916">
					<stop  offset="0" style="stop-color:#EFCF64"/>
					<stop  offset="0.3708" style="stop-color:#E38378"/>
					<stop  offset="1" style="stop-color:#4136EB"/>
				</linearGradient>
				<rect x="84.64" y="83.74" class="st5" width="353.13" height="205.05"/>
				<g>
					<defs>
						<rect id="SVGID_2_" x="84.64" y="83.74" width="353.13" height="205.05"/>
					</defs>
					<clipPath id="SVGID_3_">
						<use xlink:href="#SVGID_2_"  style="overflow:visible;"/>
					</clipPath>
					<path class="st6" d="M321.13,145.02v18.33c1.75,1.2,3.49,2.5,5.24,3.93v47.73h8.77V168.8h39.41v97.21h8.82v-45.45h39.43v-26.37
						h6.78v-40.83l12.3-13.58v175.3H74.77V204.11l12.12-8.03l9.17,6.08v-4.68h8.06v10.02l4.06,2.69v78.41h5.84V183.53l25.54,10.8
						v79.37h11.31v-93.03h5.31v-11.78l47.25-17.79v34.18h9.15v29.71h18.45v37.61h29.93v-85.34c8.02-6.56,16.05-10.7,24.07-12.43
						v-9.83H321.13z"/>
				</g>
				<g>
					<path class="st7" d="M445.7,298.72H76.72V73.82H445.7V298.72z M84.64,288.79h353.13V83.74H84.64V288.79z"/>
				</g>
				<g>
					<g>
						<polygon class="st7" points="441.74,183.63 266.49,183.63 266.49,79.78 255.93,79.78 255.93,183.63 80.68,183.63 
							80.68,188.91 255.93,188.91 255.93,292.75 266.49,292.75 266.49,188.91 441.74,188.91 						"/>
					</g>
				</g>
				<g>
					<g>
						<rect x="54.26" y="62.32" class="st8" width="413.91" height="5.28"/>
					</g>
					<g>
						<circle class="st8" cx="468.16" cy="64.96" r="7.46"/>
					</g>
					<g>
						<circle class="st8" cx="54.26" cy="64.96" r="7.46"/>
					</g>
				</g>
				<g>
					<g>
						<g>
							<path class="st3" d="M407.68,75.05c-2.08,8.22-3.26,20.27-3.26,37.96c0,55.84,11.77,146.67,26.29,146.67
								S457,168.85,457,113.01c0-17.69-1.18-29.74-3.26-37.96H407.68z"/>
						</g>
						<g>
							<path class="st3" d="M449.81,75.05h-1.32c0.74,7.97,1.11,17.87,1.11,29.94c0,61.89-8.79,147.04-17.78,153.6
								c0.89-3.79,1.96-15.84,3.05-54.16c0.88-30.79,1.44-69.83,1.44-99.45c0-12.06-0.09-21.96-0.28-29.94h-1.32
								c0.19,7.98,0.28,17.88,0.28,29.94c0,59.61-2.06,141.43-4.27,152.93c-2.21-11.5-4.27-93.32-4.27-152.93
								c0-12.06,0.09-21.96,0.28-29.94h-1.32c-0.19,7.98-0.28,17.88-0.28,29.94c0,29.62,0.57,68.65,1.44,99.45
								c1.09,38.32,2.16,50.37,3.05,54.16c-9-6.56-17.78-91.71-17.78-153.6c0-12.07,0.37-21.97,1.11-29.94h-1.32
								c-0.74,8-1.11,17.89-1.11,29.94c0,49.3,6.72,140.13,17.48,153.62c0.9,0.7,1.8,1.07,2.72,1.07s1.83-0.37,2.72-1.07
								c10.76-13.49,17.48-104.32,17.48-153.62C450.91,92.94,450.55,83.04,449.81,75.05z"/>
						</g>
						<g>
							<g>
								<g>
									<rect x="415.26" y="67.6" class="st8" width="1.32" height="7.45"/>
								</g>
							</g>
							<g>
								<g>
									<rect x="425.12" y="67.6" class="st8" width="1.32" height="7.45"/>
								</g>
							</g>
							<g>
								<g>
									<rect x="434.98" y="67.6" class="st8" width="1.32" height="7.45"/>
								</g>
							</g>
							<g>
								<g>
									<rect x="444.84" y="67.6" class="st8" width="1.32" height="7.45"/>
								</g>
							</g>
						</g>
						<g>
							<rect x="403.81" y="75.05" class="st8" width="53.79" height="9.46"/>
						</g>
						<g>
							<path class="st3" d="M405.51,88.03h50.4c-0.13-1.22-0.27-2.39-0.42-3.52h-49.57C405.78,85.64,405.64,86.81,405.51,88.03z"/>
						</g>
						<g>
							<path class="st3" d="M447.04,359.33c-0.69-12.65-7.74-99.66-16.33-99.66c-8.59,0-15.64,87-16.33,99.66H447.04z"/>
						</g>
						<g>
							<path class="st3" d="M441.74,359.33c-0.9-12.34-4.02-92.76-8.98-99c-0.67-0.42-1.35-0.66-2.04-0.66
								c-0.69,0-1.37,0.24-2.04,0.66c-4.96,6.24-8.08,86.66-8.98,99h1.29c1.01-15.56,4.64-92.5,8.3-97.89
								c-0.56,2.56-1.17,7.82-1.85,18.64c-0.57,9.15-0.97,72.11-1.14,79.25h1.32c0.37-15.73,1.73-93.52,3.11-98.38
								c1.37,4.86,2.74,82.65,3.11,98.38h1.32c-0.17-7.14-0.57-70.1-1.14-79.25c-0.67-10.82-1.29-16.08-1.85-18.64
								c3.66,5.39,7.3,82.33,8.3,97.89H441.74z"/>
						</g>
						<g>
							<rect x="423.51" y="254.94" class="st8" width="14.39" height="9.46"/>
						</g>
						<g>
							<path class="st3" d="M423.22,268.06h14.97c-0.61-1.35-1.23-2.57-1.88-3.65H425.1C424.46,265.48,423.83,266.71,423.22,268.06z
								"/>
						</g>
					</g>
					<g>
						<g>
							<path class="st3" d="M114.74,75.05c2.08,8.22,3.26,20.27,3.26,37.96c0,55.84-11.77,146.67-26.29,146.67
								s-26.29-90.82-26.29-146.67c0-17.69,1.18-29.74,3.26-37.96H114.74z"/>
						</g>
						<g>
							<path class="st3" d="M72.61,75.05h1.32c-0.74,7.97-1.11,17.87-1.11,29.94c0,61.89,8.79,147.04,17.78,153.6
								c-0.89-3.79-1.96-15.84-3.05-54.16c-0.88-30.79-1.44-69.83-1.44-99.45c0-12.06,0.09-21.96,0.28-29.94h1.32
								c-0.19,7.98-0.28,17.88-0.28,29.94c0,59.61,2.06,141.43,4.27,152.93c2.21-11.5,4.27-93.32,4.27-152.93
								c0-12.06-0.09-21.96-0.28-29.94h1.32c0.19,7.98,0.28,17.88,0.28,29.94c0,29.62-0.57,68.65-1.44,99.45
								c-1.09,38.32-2.16,50.37-3.05,54.16c9-6.56,17.78-91.71,17.78-153.6c0-12.07-0.37-21.97-1.11-29.94h1.32
								c0.74,8,1.11,17.89,1.11,29.94c0,49.3-6.72,140.13-17.48,153.62c-0.9,0.7-1.8,1.07-2.72,1.07c-0.92,0-1.83-0.37-2.72-1.07
								c-10.76-13.49-17.48-104.32-17.48-153.62C71.51,92.94,71.87,83.04,72.61,75.05z"/>
						</g>
						<g>
							<g>
								<g>
									<rect x="105.84" y="67.6" class="st8" width="1.32" height="7.45"/>
								</g>
							</g>
							<g>
								<g>
									<rect x="95.98" y="67.6" class="st8" width="1.32" height="7.45"/>
								</g>
							</g>
							<g>
								<g>
									<rect x="86.12" y="67.6" class="st8" width="1.32" height="7.45"/>
								</g>
							</g>
							<g>
								<g>
									<rect x="76.26" y="67.6" class="st8" width="1.32" height="7.45"/>
								</g>
							</g>
						</g>
						<g>
							
								<rect x="64.81" y="75.05" transform="matrix(-1 -1.224647e-16 1.224647e-16 -1 183.4204 159.5603)" class="st8" width="53.79" height="9.46"/>
						</g>
						<g>
							<path class="st3" d="M116.91,88.03h-50.4c0.13-1.22,0.27-2.39,0.42-3.52h49.57C116.64,85.64,116.78,86.81,116.91,88.03z"/>
						</g>
						<g>
							<path class="st3" d="M75.38,359.33c0.69-12.65,7.74-99.66,16.33-99.66s15.64,87,16.33,99.66H75.38z"/>
						</g>
						<g>
							<path class="st3" d="M80.68,359.33c0.9-12.34,4.02-92.76,8.98-99c0.67-0.42,1.35-0.66,2.04-0.66c0.69,0,1.37,0.24,2.04,0.66
								c4.96,6.24,8.08,86.66,8.98,99h-1.29c-1.01-15.56-4.64-92.5-8.3-97.89c0.56,2.56,1.17,7.82,1.85,18.64
								c0.57,9.15,0.97,72.11,1.14,79.25h-1.32c-0.37-15.73-1.73-93.52-3.11-98.38c-1.37,4.86-2.74,82.65-3.11,98.38h-1.32
								c0.17-7.14,0.57-70.1,1.14-79.25c0.67-10.82,1.29-16.08,1.85-18.64c-3.66,5.39-7.3,82.33-8.3,97.89H80.68z"/>
						</g>
						<g>
							
								<rect x="84.51" y="254.94" transform="matrix(-1 -1.224647e-16 1.224647e-16 -1 183.4204 519.3459)" class="st8" width="14.39" height="9.46"/>
						</g>
						<g>
							<path class="st3" d="M99.2,268.06H84.22c0.61-1.35,1.23-2.57,1.88-3.65h11.21C97.96,265.48,98.59,266.71,99.2,268.06z"/>
						</g>
					</g>
				</g>
				<polygon class="st7" points="231.92,103.99 233.16,108.12 237.29,109.36 233.16,110.6 231.92,114.73 230.67,110.6 
					226.55,109.36 230.67,108.12 				"/>
				<polygon class="st7" points="186.92,91.21 187.68,93.75 190.22,94.51 187.68,95.28 186.92,97.82 186.15,95.28 183.61,94.51 
					186.15,93.75 				"/>
				<polygon class="st7" points="403.81,197.31 404.58,199.85 407.12,200.61 404.58,201.38 403.81,203.92 403.05,201.38 
					400.51,200.61 403.05,199.85 				"/>
				<polygon class="st7" points="126.69,160.08 127.46,162.62 130,163.38 127.46,164.15 126.69,166.69 125.93,164.15 123.38,163.38 
					125.93,162.62 				"/>
				<circle class="st9" cx="375.01" cy="137.45" r="22.63"/>
				<g>
					<path class="st10" d="M209.22,129.31h-87.35c-1.23,0-2.24-1.01-2.24-2.24l0,0c0-1.23,1.01-2.24,2.24-2.24h87.35
						c1.23,0,2.24,1.01,2.24,2.24l0,0C211.46,128.3,210.45,129.31,209.22,129.31z"/>
					<path class="st10" d="M180.93,127.07h-49.95c-1.75,0-3.19-1.44-3.19-3.19l0,0c0-1.75,1.44-3.19,3.19-3.19h49.95
						c1.75,0,3.19,1.43,3.19,3.19l0,0C184.12,125.64,182.69,127.07,180.93,127.07z"/>
					<path class="st10" d="M159.24,123.88h-17.59c-2.52,0-4.58-2.06-4.58-4.58l0,0c0-2.52,2.06-4.58,4.58-4.58h17.59
						c2.52,0,4.58,2.06,4.58,4.58l0,0C163.81,121.82,161.75,123.88,159.24,123.88z"/>
				</g>
			</g>
			<path class="st11" d="M36.71,443.53h673.34c3.29,0,5.95-2.66,5.95-5.95l0,0c0-3.29-2.66-5.95-5.95-5.95H36.71
				c-3.29,0-5.95,2.66-5.95,5.95l0,0C30.76,440.87,33.42,443.53,36.71,443.53z"/>
		</g>
	</g>
</g>
<g id="OBJECTS">
	<path class="st12" d="M660.44,115.82c0,28.09-35.2,50.87-78.61,50.87c-25.67,0-48.47-7.96-62.81-20.28
		c-3.61-3.1-6.68-6.47-9.13-10.05c-4.29-6.28-6.67-13.23-6.67-20.54c0-28.09,35.2-50.87,78.61-50.87S660.44,87.73,660.44,115.82z"/>
	<g>
		<g>
			<g>
				<g>
					<g>
						<path class="st9" d="M201.64,288.86c0,0.01-0.73,2.17-1.5,4.89c-0.77,2.72-1.59,5.97-1.76,8.24l1.3,0.1
							c0.15-2.07,0.95-5.31,1.71-7.98c0.38-1.34,0.75-2.55,1.03-3.42c0.28-0.87,0.45-1.4,0.46-1.4L201.64,288.86L201.64,288.86z"/>
						<path class="st9" d="M189.99,289.93c0,0,0.03,0.22,0.06,0.62c0.12,1.2,0.35,3.99,0.35,7.02c0,1.42-0.05,2.89-0.19,4.27
							l1.3,0.13c0.14-1.44,0.2-2.95,0.2-4.4c0-4.13-0.43-7.78-0.43-7.79L189.99,289.93L189.99,289.93z"/>
						<path class="st9" d="M183.54,298.55L183.54,298.55c0.05,0.06,0.32,0.37,0.56,0.81c0.25,0.45,0.46,1.02,0.46,1.57h1.3
							c0-0.93-0.35-1.73-0.68-2.31c-0.33-0.58-0.66-0.93-0.68-0.96L183.54,298.55L183.54,298.55z"/>
					</g>
					<linearGradient id="SVGID_4_" gradientUnits="userSpaceOnUse" x1="217.0389" y1="244.0254" x2="217.0389" y2="293.599">
						<stop  offset="0" style="stop-color:#68ACFF"/>
						<stop  offset="0.2291" style="stop-color:#65A7FF"/>
						<stop  offset="0.4985" style="stop-color:#5B99FF"/>
						<stop  offset="0.787" style="stop-color:#4A81FF"/>
						<stop  offset="1" style="stop-color:#3B6BFF"/>
					</linearGradient>
					<path class="st13" d="M200.09,290.18c0,0-6.68-8.47,3.58-26.05c10.26-17.59,31.43-21.82,32.4-19.54
						c0.98,2.28-10.75,6.68-14,20.19c-3.26,13.51-3.69,21-7.76,25.08C210.23,293.93,204.7,295.56,200.09,290.18z"/>
					<linearGradient id="SVGID_5_" gradientUnits="userSpaceOnUse" x1="160.93" y1="275.5293" x2="160.93" y2="300.2243">
						<stop  offset="0" style="stop-color:#68ACFF"/>
						<stop  offset="0.2291" style="stop-color:#65A7FF"/>
						<stop  offset="0.4985" style="stop-color:#5B99FF"/>
						<stop  offset="0.787" style="stop-color:#4A81FF"/>
						<stop  offset="1" style="stop-color:#3B6BFF"/>
					</linearGradient>
					<path class="st14" d="M186.34,291.89c0,0-0.73-9.52-17.97-14.82c-17.24-5.3-33.57,4.65-32.84,6.72
						c0.73,2.07,11.01-2.1,21.24,4.75c10.23,6.85,15.01,11.47,20.11,11.68C181.98,300.42,186.56,298.16,186.34,291.89z"/>
					<linearGradient id="SVGID_6_" gradientUnits="userSpaceOnUse" x1="176.2175" y1="234.0872" x2="176.2175" y2="290.1638">
						<stop  offset="0" style="stop-color:#68ACFF"/>
						<stop  offset="0.2291" style="stop-color:#65A7FF"/>
						<stop  offset="0.4985" style="stop-color:#5B99FF"/>
						<stop  offset="0.787" style="stop-color:#4A81FF"/>
						<stop  offset="1" style="stop-color:#3B6BFF"/>
					</linearGradient>
					<path class="st15" d="M196.71,285.65c0,0,11.5-12.35-1.84-32.1c-13.33-19.76-42.74-21.13-43.7-18.4
						c-0.97,2.74,11.51,7.91,16.35,23.44c4.84,15.54,7.48,23.32,12.55,27.77C185.14,290.8,191.73,292.28,196.71,285.65z"/>
					<g>
						<path class="st11" d="M202.8,287.57c-0.06,0-0.12-0.01-0.17-0.02c-0.35-0.1-0.55-0.45-0.45-0.8
							c0.3-1.07,7.45-26.45,20.67-36.14c0.29-0.21,0.7-0.15,0.91,0.14c0.21,0.29,0.15,0.7-0.14,0.91
							c-12.86,9.42-20.12,35.18-20.19,35.44C203.35,287.38,203.08,287.57,202.8,287.57z"/>
					</g>
					<g>
						<path class="st11" d="M189.48,284.36c-0.28,0-0.56-0.2-0.65-0.49c-0.04-0.11-0.04-0.18-0.08-0.71
							c-0.6-8.93-4.4-38.54-28.29-44.79c-0.35-0.09-0.56-0.45-0.47-0.8c0.09-0.35,0.45-0.55,0.8-0.47
							c24.74,6.47,28.65,36.81,29.26,45.96c0.02,0.25,0.03,0.4,0.04,0.47c0.11,0.34-0.08,0.67-0.42,0.78
							C189.6,284.35,189.54,284.36,189.48,284.36z"/>
					</g>
					<g>
						<path class="st11" d="M181.43,296.21c-0.3,0-0.59-0.26-1.54-1.12c-10.71-9.7-21.04-14.29-30.7-13.66
							c-0.36,0.03-0.67-0.25-0.69-0.61c-0.02-0.36,0.25-0.67,0.61-0.69c10.03-0.67,20.67,4.05,31.66,13.99
							c0.38,0.34,0.77,0.7,0.93,0.82c0.18,0.07,0.32,0.21,0.39,0.4c0.11,0.34-0.07,0.71-0.41,0.82
							C181.59,296.2,181.51,296.21,181.43,296.21z"/>
					</g>
				</g>
				<linearGradient id="SVGID_7_" gradientUnits="userSpaceOnUse" x1="164.4048" y1="320.6318" x2="218.1801" y2="320.6318">
					<stop  offset="0" style="stop-color:#C3D3DD"/>
					<stop  offset="0.2105" style="stop-color:#BFD0DA"/>
					<stop  offset="0.3983" style="stop-color:#B5C7D1"/>
					<stop  offset="0.5026" style="stop-color:#ABBFC9"/>
					<stop  offset="0.6532" style="stop-color:#A9BBC8"/>
					<stop  offset="0.7878" style="stop-color:#A3B1C3"/>
					<stop  offset="0.9158" style="stop-color:#999EBC"/>
					<stop  offset="1" style="stop-color:#908EB5"/>
				</linearGradient>
				<path class="st16" d="M208.09,340.33H174.5c-0.85,0-1.58-0.58-1.77-1.41l-8.28-35.77c-0.26-1.14,0.6-2.22,1.77-2.22h50.14
					c1.17,0,2.03,1.09,1.77,2.22l-8.28,35.77C209.66,339.75,208.93,340.33,208.09,340.33z"/>
				<path class="st17" d="M216.36,300.93h-50.14c-1.17,0-2.03,1.09-1.77,2.22l1.66,7.16h50.36l1.66-7.16
					C218.4,302.02,217.53,300.93,216.36,300.93z"/>
			</g>
			<g>
				<polyline class="st18" points="154.65,433.53 168.34,340.33 213.46,340.33 227.15,433.53 				"/>
				<line class="st18" x1="190.9" y1="340.33" x2="190.9" y2="433.53"/>
				<line class="st19" x1="160.89" y1="340.33" x2="220.91" y2="340.33"/>
			</g>
		</g>
		<g>
			<path class="st20" d="M194.72,315.08h75.44v108.71h-83.22V322.87C186.93,318.57,190.42,315.08,194.72,315.08z"/>
			<path class="st21" d="M194.72,315.08L194.72,315.08c-4.3,0-7.79,3.49-7.79,7.79v100.92h15.57V322.87
				C202.5,318.57,199.02,315.08,194.72,315.08z"/>
			<g>
				<linearGradient id="SVGID_8_" gradientUnits="userSpaceOnUse" x1="427.8154" y1="223.4384" x2="427.8154" y2="348.0555">
					<stop  offset="0" style="stop-color:#606BF1"/>
					<stop  offset="0.2746" style="stop-color:#5C65E8"/>
					<stop  offset="0.7301" style="stop-color:#5156CE"/>
					<stop  offset="1" style="stop-color:#494BBC"/>
				</linearGradient>
				<path class="st22" d="M594.02,223.44H281.06c-4.3,0-7.79,3.49-7.79,7.79l-19.45,83.85v32.98h328.54v-32.98l19.45-83.85
					C601.81,226.92,598.32,223.44,594.02,223.44z"/>
				<path class="st23" d="M594.02,223.44H281.06c-4.3,0-7.79,3.49-7.79,7.79l-19.45,83.85v32.98h328.54v-32.98l19.45-83.85
					C601.81,226.92,598.32,223.44,594.02,223.44z"/>
			</g>
			<path class="st20" d="M594.02,223.44L594.02,223.44c-4.3,0-7.79,3.49-7.79,7.79l-19.45,83.85h15.57l19.45-83.85
				C601.81,226.92,598.32,223.44,594.02,223.44z"/>
			<g>
				<linearGradient id="SVGID_9_" gradientUnits="userSpaceOnUse" x1="358.1632" y1="348.0365" x2="358.1632" y2="423.7865">
					<stop  offset="0" style="stop-color:#606BF1"/>
					<stop  offset="0.2746" style="stop-color:#5C65E8"/>
					<stop  offset="0.7301" style="stop-color:#5156CE"/>
					<stop  offset="1" style="stop-color:#494BBC"/>
				</linearGradient>
				<rect x="217.19" y="348.04" class="st24" width="281.95" height="75.75"/>
				<rect x="217.19" y="348.04" class="st23" width="281.95" height="75.75"/>
			</g>
			<rect x="210.34" y="348.04" class="st21" width="288.79" height="17.49"/>
			<path class="st20" d="M506.92,315.08h75.44v108.71h-83.22V322.87C499.14,318.57,502.62,315.08,506.92,315.08z"/>
			<path class="st21" d="M506.92,315.08L506.92,315.08c-4.3,0-7.79,3.49-7.79,7.79v100.92h15.57V322.87
				C514.71,318.57,511.23,315.08,506.92,315.08z"/>
			<polygon class="st9" points="510.73,435.65 503.12,435.65 501.42,423.79 512.42,423.79 			"/>
			<polygon class="st9" points="198.52,435.65 190.91,435.65 189.22,423.79 200.22,423.79 			"/>
			<polygon class="st9" points="255.7,435.65 248.08,435.65 246.39,423.79 257.39,423.79 			"/>
			<polygon class="st9" points="570.59,435.65 562.98,435.65 561.29,423.79 572.29,423.79 			"/>
		</g>
		<g>
			<g>
				<g id="XMLID_1_">
					<g>
						<linearGradient id="SVGID_10_" gradientUnits="userSpaceOnUse" x1="492.6547" y1="153.4656" x2="492.6547" y2="214.7672">
							<stop  offset="0" style="stop-color:#5B2A8D"/>
							<stop  offset="0.1693" style="stop-color:#4B2786"/>
							<stop  offset="0.4267" style="stop-color:#38247D"/>
							<stop  offset="0.6972" style="stop-color:#2E2379"/>
							<stop  offset="1" style="stop-color:#2A2277"/>
						</linearGradient>
						<path class="st25" d="M489.51,167.15c-2.91,2.57-6.29,4.62-9.92,6.03c-2.56,0.98-5.31,1.7-7.53,3.29v0.01
							c1.2,8.14,3.08,13.83,9.03,21.08c0,0,1.03,0.38,3.9,0.16l0.3,1.97l0.13,0.91c-6.42,0.06-14.12,0.9-19.03,4.06
							c-1.49-1.06-2.37-2.94-2.17-4.76c0.18-1.77,1.25-3.29,2.14-4.83c0.89-1.54,1.63-3.35,1.11-5.03
							c-0.46-1.51-1.86-2.64-2.16-4.19c-0.18-0.95,0.07-1.93,0.4-2.83c0.95-2.63,2.52-5.17,2.33-7.96c-0.09-1.33-0.58-2.6-0.83-3.9
							c-1.1-5.87,2.12-11.52,7.19-14.43c6.47-3.72,17.55-5.16,23.39,0.45v0.17c1.96-0.02,3.97-0.03,5.84,0.59
							c1.91,0.63,3.68,2.08,4.17,4.03c0.24,1.03,0.14,2.11,0.46,3.11c0.98,2.98,5.15,3.68,6.67,6.43c1.97,3.59-1.64,8.22-0.17,12.04
							c1.21,3.16,5.53,4.71,5.84,8.08c0.28,3.02-2.99,5.52-2.72,8.54c0.16,1.93,1.7,3.41,2.54,5.14c1.55,3.2,0.38,7.44-2.54,9.43
							c-3.34-10.45-13.83-12.99-21.51-13.74l-0.03,0.02c-0.01-0.01-0.01-0.02-0.01-0.02c-1.19-1.75-0.9-4.21-0.24-6.27
							c0.22-0.69,0.47-1.39,0.45-2.11c-0.05-1.6-1.4-2.82-2.67-3.81c-1.27-0.98-2.66-2.11-2.84-3.71c-0.28-2.32,2.17-4.4,1.65-6.67
							c-0.33-1.45-1.77-2.38-2.49-3.68c-1.24-2.22-0.21-5.01-0.6-7.53L489.51,167.15z"/>
						<path class="st26" d="M498.23,296.61c-0.06,1.25-0.33,3.26-0.77,5.68c0,0-29.05,1.19-34.76,0.74
							c-5.67-0.46-10.81-1.44-14.78-5.01c1.05,0.53,10.97,1.2,13.15,1.29C463,299.39,488.39,297.52,498.23,296.61z"/>
						<path class="st27" d="M485.42,200.61l-0.13-0.91c4.58-0.06,7.4-2.34,8.13-3.58c-3.79,1-6.52,1.44-8.43,1.6
							c-2.88,0.22-3.9-0.16-3.9-0.16c-5.95-7.25-7.83-12.94-9.03-21.08v-0.01c2.22-1.59,4.96-2.31,7.53-3.29
							c3.63-1.41,7.01-3.45,9.92-6.03l0.08,0.09c0.39,2.52-0.64,5.31,0.6,7.53c0.73,1.3,2.16,2.23,2.49,3.68
							c0.52,2.27-1.93,4.35-1.65,6.67c0.18,1.59,1.57,2.72,2.84,3.71c1.27,0.99,2.62,2.21,2.67,3.81c0.02,0.73-0.23,1.42-0.45,2.11
							c-0.66,2.06-0.95,4.51,0.24,6.27c-4.16,3.53-10.53,2.11-10.53,2.11L485.42,200.61z"/>
						<path class="st26" d="M495.82,227.38l-3.31,51.08l-17.87,2.64c13.81-4.46,14.62-18.02,16.03-27.93
							C492.18,242.63,495.62,228.26,495.82,227.38z"/>
						<path class="st28" d="M493.42,196.12c-0.73,1.24-3.54,3.52-8.13,3.58l-0.3-1.97C486.9,197.56,489.64,197.13,493.42,196.12z"/>
						<linearGradient id="SVGID_11_" gradientUnits="userSpaceOnUse" x1="380.1334" y1="287.5412" x2="380.1334" y2="359.415">
							<stop  offset="0" style="stop-color:#5B2A8D"/>
							<stop  offset="0.1693" style="stop-color:#4B2786"/>
							<stop  offset="0.4267" style="stop-color:#38247D"/>
							<stop  offset="0.6972" style="stop-color:#2E2379"/>
							<stop  offset="1" style="stop-color:#2A2277"/>
						</linearGradient>
						<path class="st29" d="M451.91,348.05c-26.91-0.95-71.1-32.92-73.95-33.49c-1.76-0.36-5.74-1.19-9.53-1.21
							c-0.01,0-0.01,0-0.02,0c-2.36-0.01-4.64,0.29-6.28,1.2c-0.01,0-0.01,0.01-0.02,0.01c-1.71,1.39-4.3,4.6-7.44,9.04l-0.25-0.18
							l-8.28,6.58c0,0-0.02,0.02-0.07,0.06c-1.51,1.28-25.67,21.71-28.62,23.15c-3.01,1.47-21.03,6.07-21.57,6.21
							c-0.01,0-0.01,0-0.01,0c-3.42-2.26-8-10.24-10.36-17.98c15.67-13.94,62.23-53.83,81.57-53.9c2.02-0.01,8.46,0.39,15.75,1.55
							l5.81,1.05l21.03,3.82l33.69,6.45c12.71,3.6,17.61,21.82,23.52,28.48c5.92,6.66,6.3,7.4,7.87,8.45
							c-3.16,5.62-11.34,10.39-22.84,10.71V348.05z"/>
						<path class="st26" d="M450.77,233.86c4.09-6.85,12.12-16.25,12.62-16.83c-0.42,0.68-11.47,18.23-11.47,20.22
							c0,2.06,0,12.11,0,12.11l-3.97,21.63c-2.91,3.5-6.33,7.1-8.26,7.41c-1.05,0.17-3.93,0.52-7.54,0.92
							c1.59-0.85,5.1-3.18,7.05-7.79C441.8,265.41,446.56,240.93,450.77,233.86z"/>
						<path class="st30" d="M437.41,347.59c-1.67-0.05-9.12-0.27-18.2-0.52c-3.18-0.74-17.68-11.04-24.69-17.08
							c-7-6.03-19.64-16-26.09-16.65c3.79,0.02,7.77,0.85,9.53,1.21c2.85,0.58,47.04,32.55,73.95,33.49v0.01
							c-0.43,0.01-0.85,0.02-1.28,0.02c-2.75,0-7.3-0.18-12.86-0.48C437.77,347.6,437.64,347.6,437.41,347.59z"/>
						<linearGradient id="SVGID_12_" gradientUnits="userSpaceOnUse" x1="461.9048" y1="200.6118" x2="461.9048" y2="337.4772">
							<stop  offset="0" style="stop-color:#FF8578"/>
							<stop  offset="0.5447" style="stop-color:#FF7178"/>
							<stop  offset="1" style="stop-color:#FF6678"/>
						</linearGradient>
						<path class="st31" d="M518.88,219.91c-0.15-1.89-0.48-3.6-0.99-5.14c-3.34-10.45-13.83-12.99-21.51-13.74l-0.03,0.02
							c-0.01-0.01-0.01-0.02-0.01-0.02c-4.16,3.53-10.53,2.11-10.53,2.11l-0.38-2.53c-6.42,0.06-14.12,0.9-19.03,4.06
							c-0.83,0.54-1.59,1.14-2.24,1.82c-2.62,2.7-9.51,14.22-16.25,26.02c-8.12,14.24-16.04,28.88-16.04,28.88l-26.99,3.45
							l-0.08,0.01l3.07,17.16l0.2-0.03c0,0,3.27-0.35,7.72-0.83c1.5-0.82,2.89-1.43,3.56-1.43c0.99,0,3.72,0.18,6.05,0.37
							c0.01,0,0.02,0,0.02,0c2.36-0.27,4.68-0.52,6.74-0.77c1.59-0.85,5.1-3.18,7.05-7.79c2.59-6.12,7.34-30.6,11.56-37.66
							c4.09-6.85,12.12-16.25,12.62-16.83c-0.42,0.68-11.47,18.23-11.47,20.22c0,2.06,0,12.11,0,12.11l-3.97,21.63l-2.66,14.47
							l1.47-0.22c0.14,2.59,0.53,8.69,0.84,11.4c-2.04,0.07-3.81,0.13-5.24,0.17v0.01l-0.51,1.95l1.71,0.36l-0.21,1.29
							c12.71,3.6,17.61,21.82,23.52,28.48c5.92,6.66,6.3,7.4,7.87,8.45h0.01c1.6,1.04,10.28-4.53,14.35-9.13
							c3.18-3.6,6.78-17.35,8.34-25.93c0,0-29.05,1.19-34.77,0.74c-5.67-0.46-10.81-1.44-14.78-5.01c1.05,0.53,10.97,1.2,13.15,1.29
							c1.94,0.08,27.33-1.79,37.17-2.7c1.64-0.14,2.84-0.27,3.44-0.35c4.1-0.57,5.65-2.49,7.61-10.59c0.03-0.14,0.07-0.28,0.1-0.43
							C513.26,270.41,520.05,234.6,518.88,219.91z M492.51,278.45l-17.87,2.64c13.81-4.46,14.62-18.02,16.03-27.93
							c1.51-10.54,4.95-24.9,5.16-25.79L492.51,278.45z"/>
						<path class="st27" d="M445.3,285.45l1.47-0.22c0.14,2.59,0.53,8.69,0.84,11.4c-2.04,0.07-3.81,0.13-5.24,0.17
							c-2.27,0.07-3.65,0.12-3.81,0.12c-0.01,0-0.01,0-0.01,0c-1.41,0.47-2.71,0.53-3.9,0.3c-6.62-1.28-10.02-11.51-10.3-11.62
							c-0.32-0.14-5.67-1.34-6.6-1.34c-0.94,0-7.6,2.26-7.6,1.2c0-0.68,2.99-2.83,5.65-4.31c1.5-0.82,2.89-1.43,3.56-1.43
							c0.99,0,3.72,0.18,6.05,0.37c0.01,0,0.02,0,0.02,0c2.06,0.16,3.8,0.3,3.8,0.3l8.23,6.22L445.3,285.45z"/>
						<polygon class="st3" points="441.86,298.76 443.57,299.12 443.36,300.42 409.67,293.96 409.67,292.1 434.63,297.27 						"/>
						<linearGradient id="SVGID_13_" gradientUnits="userSpaceOnUse" x1="361.4288" y1="313.3463" x2="361.4288" y2="417.699">
							<stop  offset="0" style="stop-color:#5B2A8D"/>
							<stop  offset="0.1693" style="stop-color:#4B2786"/>
							<stop  offset="0.4267" style="stop-color:#38247D"/>
							<stop  offset="0.6972" style="stop-color:#2E2379"/>
							<stop  offset="1" style="stop-color:#2A2277"/>
						</linearGradient>
						<path class="st32" d="M371.73,351.9c-0.92,1.59-30.61,52.61-33.83,55.47c-3.26,2.9-13.05,10.33-13.05,10.33
							c-0.36,0-0.85-0.07-1.45-0.21c-5.08-1.12-17.61-6.59-19.76-9.09c9.49-16.87,36.42-64.2,51.03-84.81
							c3.14-4.45,5.73-7.65,7.44-9.04c0.01,0,0.01-0.01,0.02-0.01c1.64-0.91,3.93-1.21,6.28-1.2c0.01,0,0.01,0,0.02,0
							c6.45,0.65,19.1,10.62,26.09,16.65c7.01,6.04,21.51,16.34,24.69,17.08c-16.44-0.47-38.21-1.07-40.71-1.07
							c-2.36,0-4.98,3.19-6.75,5.87C371.75,351.86,371.74,351.88,371.73,351.9z"/>
						<path class="st33" d="M409.67,292.1v1.86l-21.03-3.82c-1.95-0.4-3.91-0.76-5.81-1.05l-20.3-3.69l-0.37-1.17l45.9,7.87H409.67z
							"/>
						<polygon class="st3" points="407.87,282.02 409.67,292.1 408.06,292.1 400.11,247 401.6,247 404.8,264.87 						"/>
						<polygon class="st11" points="400.11,247 408.06,292.1 362.17,284.23 361.72,284.15 352.8,245.38 						"/>
						<linearGradient id="SVGID_14_" gradientUnits="userSpaceOnUse" x1="385.7389" y1="289.0886" x2="385.7389" y2="290.1392">
							<stop  offset="0" style="stop-color:#606BF1"/>
							<stop  offset="0.2746" style="stop-color:#5C65E8"/>
							<stop  offset="0.7301" style="stop-color:#5156CE"/>
							<stop  offset="1" style="stop-color:#494BBC"/>
						</linearGradient>
						<path class="st34" d="M388.64,290.14l-5.81-1.05C384.73,289.38,386.69,289.74,388.64,290.14z"/>
						<path class="st27" d="M323.4,417.49c-0.65,0.95-1.19,1.71-1.62,2.26c-1.26,1.65-2.19,10.13-2.93,14.58
							c0,0-7.56,0.27-16.67,0.37c-0.14-0.72-2.63-12.18-11.44-14.24c5.22-3.37,9.47-5.95,9.47-5.95s1.26-2.26,3.44-6.12
							C305.79,410.9,318.32,416.37,323.4,417.49z"/>
						<linearGradient id="SVGID_15_" gradientUnits="userSpaceOnUse" x1="295.2337" y1="433.5286" x2="295.2337" y2="437.7755">
							<stop  offset="0" style="stop-color:#734398"/>
							<stop  offset="1" style="stop-color:#4A4884"/>
						</linearGradient>
						<path class="st35" d="M302.17,434.71c9.11-0.1,16.67-0.37,16.67-0.37c-0.25,1.58-0.5,2.67-0.7,2.76
							c-0.81,0.36-45.41,1.9-46.5-1.36c-0.15-0.47,0.32-1.24,1.25-2.21C277.73,434.68,291.09,434.82,302.17,434.71z"/>
						<linearGradient id="SVGID_16_" gradientUnits="userSpaceOnUse" x1="272.8944" y1="427.6048" x2="302.175" y2="427.6048">
							<stop  offset="0" style="stop-color:#5B2A8D"/>
							<stop  offset="0.1693" style="stop-color:#4B2786"/>
							<stop  offset="0.4267" style="stop-color:#38247D"/>
							<stop  offset="0.6972" style="stop-color:#2E2379"/>
							<stop  offset="1" style="stop-color:#2A2277"/>
						</linearGradient>
						<path class="st36" d="M290.73,420.47c8.81,2.06,11.3,13.52,11.44,14.24c-11.08,0.12-24.44-0.02-29.28-1.18
							C276,430.26,284.14,424.73,290.73,420.47z"/>
						<path class="st27" d="M295.87,359.42c-1.84,1.22-3.6,2.4-5.29,3.53c-4.1,2.76-7.59,5.95-9.53,7.84
							c-4.92-4.01-12.92-12.25-19.85-19.79l8.72-9.02c5.78,2.23,10.33,4.19,10.33,4.19s1.93-1.79,5.25-4.73
							C287.87,349.17,292.45,357.15,295.87,359.42z"/>
						<linearGradient id="SVGID_17_" gradientUnits="userSpaceOnUse" x1="263.5138" y1="335.6188" x2="263.5138" y2="372.4504">
							<stop  offset="0" style="stop-color:#734398"/>
							<stop  offset="1" style="stop-color:#4A4884"/>
						</linearGradient>
						<path class="st37" d="M281.06,370.79c-1.05,1.02-1.64,1.66-1.64,1.66s-36.51-33.07-33.24-36.32c0.32-0.32,0.89-0.48,1.67-0.51
							c1.06,1.62,6.72,8.17,13.36,15.38C268.14,358.54,276.14,366.78,281.06,370.79z"/>
						<linearGradient id="SVGID_18_" gradientUnits="userSpaceOnUse" x1="247.8513" y1="343.3053" x2="269.9271" y2="343.3053">
							<stop  offset="0" style="stop-color:#5B2A8D"/>
							<stop  offset="0.1693" style="stop-color:#4B2786"/>
							<stop  offset="0.4267" style="stop-color:#38247D"/>
							<stop  offset="0.6972" style="stop-color:#2E2379"/>
							<stop  offset="1" style="stop-color:#2A2277"/>
						</linearGradient>
						<path class="st38" d="M269.93,341.98l-8.72,9.02c-6.64-7.2-12.3-13.76-13.36-15.38C252.03,335.45,262.11,338.96,269.93,341.98
							z"/>
					</g>
				</g>
			</g>
			<polygon class="st26" points="474.64,281.1 446.77,285.23 478.56,279.41 479.64,280.36 			"/>
		</g>
		<g>
			<g>
				<g>
					<g>
						<path class="st9" d="M576.01,290.98c0,0.01-0.73,2.17-1.5,4.89c-0.77,2.72-1.59,5.97-1.76,8.24l1.3,0.1
							c0.15-2.07,0.95-5.31,1.71-7.98c0.38-1.34,0.75-2.55,1.03-3.42c0.28-0.87,0.45-1.4,0.46-1.4L576.01,290.98L576.01,290.98z"/>
						<path class="st9" d="M564.37,292.06c0,0,0.03,0.22,0.06,0.62c0.12,1.2,0.35,3.99,0.35,7.02c0,1.42-0.05,2.89-0.19,4.27
							l1.3,0.13c0.14-1.44,0.2-2.95,0.2-4.4c0-4.13-0.43-7.78-0.43-7.79L564.37,292.06L564.37,292.06z"/>
						<path class="st9" d="M557.92,300.67L557.92,300.67c0.05,0.06,0.32,0.37,0.56,0.81c0.25,0.45,0.46,1.02,0.46,1.57h1.3
							c0-0.93-0.35-1.73-0.68-2.31c-0.33-0.58-0.66-0.93-0.68-0.96L557.92,300.67L557.92,300.67z"/>
					</g>
					<linearGradient id="SVGID_19_" gradientUnits="userSpaceOnUse" x1="591.4147" y1="246.1489" x2="591.4147" y2="295.7224">
						<stop  offset="0" style="stop-color:#68ACFF"/>
						<stop  offset="0.2291" style="stop-color:#65A7FF"/>
						<stop  offset="0.4985" style="stop-color:#5B99FF"/>
						<stop  offset="0.787" style="stop-color:#4A81FF"/>
						<stop  offset="1" style="stop-color:#3B6BFF"/>
					</linearGradient>
					<path class="st39" d="M574.46,292.31c0,0-6.68-8.47,3.58-26.05c10.26-17.59,31.43-21.82,32.4-19.54
						c0.98,2.28-10.75,6.68-14,20.19c-3.26,13.51-3.69,21-7.76,25.08C584.61,296.05,579.07,297.68,574.46,292.31z"/>
					<linearGradient id="SVGID_20_" gradientUnits="userSpaceOnUse" x1="535.3058" y1="277.6528" x2="535.3058" y2="302.3478">
						<stop  offset="0" style="stop-color:#68ACFF"/>
						<stop  offset="0.2291" style="stop-color:#65A7FF"/>
						<stop  offset="0.4985" style="stop-color:#5B99FF"/>
						<stop  offset="0.787" style="stop-color:#4A81FF"/>
						<stop  offset="1" style="stop-color:#3B6BFF"/>
					</linearGradient>
					<path class="st40" d="M560.72,294.01c0,0-0.73-9.52-17.97-14.82c-17.24-5.3-33.57,4.65-32.84,6.72
						c0.73,2.07,11.01-2.1,21.24,4.75s15.01,11.47,20.11,11.68C556.35,302.54,560.94,300.28,560.72,294.01z"/>
					<linearGradient id="SVGID_21_" gradientUnits="userSpaceOnUse" x1="550.5933" y1="236.2106" x2="550.5933" y2="292.2873">
						<stop  offset="0" style="stop-color:#68ACFF"/>
						<stop  offset="0.2291" style="stop-color:#65A7FF"/>
						<stop  offset="0.4985" style="stop-color:#5B99FF"/>
						<stop  offset="0.787" style="stop-color:#4A81FF"/>
						<stop  offset="1" style="stop-color:#3B6BFF"/>
					</linearGradient>
					<path class="st41" d="M571.09,287.77c0,0,11.5-12.35-1.84-32.1c-13.33-19.76-42.74-21.13-43.7-18.4
						c-0.97,2.74,11.51,7.91,16.35,23.44c4.84,15.54,7.48,23.32,12.55,27.77C559.52,292.93,566.11,294.41,571.09,287.77z"/>
					<g>
						<path class="st11" d="M577.18,289.69c-0.06,0-0.12-0.01-0.17-0.02c-0.35-0.1-0.55-0.45-0.45-0.8
							c0.3-1.08,7.45-26.45,20.67-36.14c0.29-0.21,0.7-0.15,0.91,0.14c0.21,0.29,0.15,0.7-0.14,0.91
							c-12.86,9.42-20.12,35.18-20.19,35.44C577.72,289.51,577.46,289.69,577.18,289.69z"/>
					</g>
					<g>
						<path class="st11" d="M563.86,286.48c-0.28,0-0.56-0.2-0.65-0.49c-0.04-0.11-0.04-0.18-0.08-0.71
							c-0.6-8.93-4.4-38.54-28.29-44.79c-0.35-0.09-0.56-0.45-0.47-0.8c0.09-0.35,0.45-0.55,0.8-0.47
							c24.74,6.47,28.65,36.81,29.26,45.96c0.02,0.25,0.03,0.4,0.03,0.47c0.11,0.34-0.08,0.67-0.42,0.78
							C563.98,286.47,563.92,286.48,563.86,286.48z"/>
					</g>
					<g>
						<path class="st11" d="M555.81,298.34c-0.3,0-0.59-0.26-1.54-1.12c-10.71-9.7-21.04-14.29-30.7-13.66
							c-0.36,0.03-0.67-0.25-0.69-0.61c-0.02-0.36,0.25-0.67,0.61-0.69c10.03-0.67,20.67,4.05,31.66,13.99
							c0.38,0.34,0.77,0.7,0.93,0.82c0.18,0.07,0.32,0.21,0.39,0.4c0.11,0.34-0.07,0.71-0.41,0.82
							C555.96,298.32,555.89,298.34,555.81,298.34z"/>
					</g>
				</g>
				<linearGradient id="SVGID_22_" gradientUnits="userSpaceOnUse" x1="538.7807" y1="322.7552" x2="592.556" y2="322.7552">
					<stop  offset="0" style="stop-color:#C3D3DD"/>
					<stop  offset="0.2105" style="stop-color:#BFD0DA"/>
					<stop  offset="0.3983" style="stop-color:#B5C7D1"/>
					<stop  offset="0.5026" style="stop-color:#ABBFC9"/>
					<stop  offset="0.6532" style="stop-color:#A9BBC8"/>
					<stop  offset="0.7878" style="stop-color:#A3B1C3"/>
					<stop  offset="0.9158" style="stop-color:#999EBC"/>
					<stop  offset="1" style="stop-color:#908EB5"/>
				</linearGradient>
				<path class="st42" d="M582.46,342.46h-33.59c-0.85,0-1.58-0.58-1.77-1.41l-8.28-35.77c-0.26-1.14,0.6-2.22,1.77-2.22h50.14
					c1.17,0,2.03,1.09,1.77,2.22l-8.28,35.77C584.04,341.87,583.31,342.46,582.46,342.46z"/>
				<path class="st17" d="M590.74,303.05H540.6c-1.17,0-2.03,1.09-1.77,2.22l1.66,7.16h50.36l1.66-7.16
					C592.77,304.14,591.91,303.05,590.74,303.05z"/>
			</g>
			<g>
				<polyline class="st18" points="529.02,435.65 542.71,342.46 587.84,342.46 601.53,435.65 				"/>
				<line class="st18" x1="565.28" y1="342.46" x2="565.28" y2="435.65"/>
				<line class="st19" x1="535.27" y1="342.46" x2="595.29" y2="342.46"/>
			</g>
		</g>
		<g>
			<text transform="matrix(1.1063 0 0 1 521.7144 112.3607)"><tspan x="0" y="0" class="st7 st43 st44">Stay Home</tspan><tspan x="2.82" y="33.15" class="st7 st43 st44">Stay Safe</tspan></text>
		</g>
		<g>
			<path class="st7" d="M647.9,433.18h-12.41v-17.79c0-1.51,1.23-2.74,2.74-2.74h6.93c1.51,0,2.74,1.23,2.74,2.74V433.18z"/>
			<g>
				<linearGradient id="SVGID_23_" gradientUnits="userSpaceOnUse" x1="616.9661" y1="181.904" x2="661.4204" y2="258.9012">
					<stop  offset="0" style="stop-color:#EFCF64"/>
					<stop  offset="1" style="stop-color:#F9965D"/>
				</linearGradient>
				<polygon class="st45" points="603.84,248.44 679.54,248.44 669.54,183.71 613.84,183.71 				"/>
				<polygon class="st0" points="606.99,246.52 676.39,246.52 666.39,185.63 616.99,185.63 				"/>
				<polygon class="st3" points="606.99,246.52 627.68,246.52 632.68,185.63 616.99,185.63 				"/>
				<polygon class="st9" points="663.17,246.52 676.39,246.52 666.39,185.63 656.17,185.63 				"/>
			</g>
			
				<rect x="639.2" y="248.44" transform="matrix(-1 -1.224647e-16 1.224647e-16 -1 1283.3866 681.617)" class="st7" width="4.99" height="184.74"/>
			<path class="st7" d="M677.7,437.58h-72.02c5.22-5.13,19.36-8.81,36.01-8.81C658.34,428.78,672.48,432.45,677.7,437.58z"/>
			
				<rect x="660.44" y="248.44" transform="matrix(-1 -1.224647e-16 1.224647e-16 -1 1321.917 516.5587)" class="st7" width="1.03" height="19.68"/>
			<linearGradient id="SVGID_24_" gradientUnits="userSpaceOnUse" x1="659.8549" y1="268.1411" x2="662.0621" y2="271.9642">
				<stop  offset="0" style="stop-color:#EFCF64"/>
				<stop  offset="1" style="stop-color:#F9965D"/>
			</linearGradient>
			<circle class="st46" cx="660.96" cy="270.05" r="2.21"/>
		</g>
	</g>
	<polyline class="st12" points="511.07,150.93 521.01,142.26 527.49,150.93 514.42,150.93 	"/>
</g>
</svg>
