<?xml version="1.0" encoding="utf-8"?>
<!-- Generator: Adobe Illustrator 24.0.1, SVG Export Plug-In . SVG Version: 6.00 Build 0)  -->
<svg version="1.1" id="Layer_1" xmlns="http://www.w3.org/2000/svg" xmlns:xlink="http://www.w3.org/1999/xlink" x="0px" y="0px"
	 viewBox="0 0 432 288" style="enable-background:new 0 0 432 288;" xml:space="preserve">
<style type="text/css">
	.st0{opacity:0.7;clip-path:url(#SVGID_3_);fill:url(#SVGID_4_);}
	.st1{opacity:0.5;clip-path:url(#SVGID_3_);fill:url(#SVGID_5_);}
	.st2{opacity:0.9;clip-path:url(#SVGID_3_);fill:url(#SVGID_6_);}
	.st3{opacity:0.5;clip-path:url(#SVGID_3_);fill:url(#SVGID_7_);}
	.st4{opacity:0.5;clip-path:url(#SVGID_3_);fill:url(#SVGID_8_);}
	.st5{opacity:0.9;clip-path:url(#SVGID_3_);fill:url(#SVGID_9_);}
	.st6{clip-path:url(#SVGID_3_);fill:url(#SVGID_10_);}
	.st7{clip-path:url(#SVGID_3_);fill:url(#SVGID_11_);}
	.st8{clip-path:url(#SVGID_3_);fill:url(#SVGID_12_);}
</style>
<g>
	<g>
		<defs>
			<rect id="SVGID_1_" y="0" width="432" height="288"/>
		</defs>
		<linearGradient id="SVGID_2_" gradientUnits="userSpaceOnUse" x1="182.7518" y1="67.4701" x2="278.5628" y2="288.0055">
			<stop  offset="0.4684" style="stop-color:#4D98E6"/>
			<stop  offset="0.5346" style="stop-color:#549CE6"/>
			<stop  offset="0.6304" style="stop-color:#67A5E6"/>
			<stop  offset="0.7443" style="stop-color:#87B5E6"/>
			<stop  offset="0.8721" style="stop-color:#B3CCE6"/>
			<stop  offset="1" style="stop-color:#E6E6E6"/>
		</linearGradient>
		<use xlink:href="#SVGID_1_"  style="overflow:visible;fill:url(#SVGID_2_);"/>
		<clipPath id="SVGID_3_">
			<use xlink:href="#SVGID_1_"  style="overflow:visible;"/>
		</clipPath>
		<linearGradient id="SVGID_4_" gradientUnits="userSpaceOnUse" x1="352.1949" y1="251.146" x2="352.1949" y2="164.2244">
			<stop  offset="0" style="stop-color:#000000"/>
			<stop  offset="0.1324" style="stop-color:#040404"/>
			<stop  offset="0.2646" style="stop-color:#101010"/>
			<stop  offset="0.3968" style="stop-color:#242424"/>
			<stop  offset="0.5291" style="stop-color:#404040"/>
			<stop  offset="0.6615" style="stop-color:#646464"/>
			<stop  offset="0.794" style="stop-color:#919191"/>
			<stop  offset="0.9242" style="stop-color:#C4C4C4"/>
			<stop  offset="1" style="stop-color:#E6E6E6"/>
		</linearGradient>
		<path class="st0" d="M499.46,221.58c0-2.04-7.23-3.71-16.37-3.85c0-0.05,0.01-0.11,0.01-0.16c0-3.69-2.76-6.69-6.16-6.69
			c-1.38,0-2.65,0.5-3.67,1.32c-0.02-0.03-0.03-0.06-0.05-0.09c-1.38-7.4-7.4-12.98-14.63-12.98c-1.23,0-2.42,0.18-3.57,0.49
			c-1.44-3.44-4.63-5.83-8.34-5.83c-2.71,0-5.14,1.28-6.82,3.32c-1.88-2.9-4.99-4.81-8.51-4.81c-0.51,0-1.01,0.05-1.51,0.13
			c0.35-1.37,0.55-2.8,0.55-4.29c0-8.95-6.68-16.2-14.92-16.2c-4.31,0-8.18,2-10.91,5.17c-1.97-4.96-6.52-8.44-11.82-8.44
			c-4.53,0-8.5,2.55-10.8,6.38c-1.55-2.67-4.29-4.45-7.41-4.45c-0.86,0-1.69,0.14-2.48,0.39c-1.98-4.03-5.89-6.78-10.39-6.78
			c-4.37,0-8.17,2.58-10.2,6.41c-0.16-0.01-0.32-0.03-0.48-0.03c-3.21,0-6.02,1.88-7.54,4.68c-2.7-2.8-6.36-4.53-10.39-4.53
			c-4.44,0-8.41,2.09-11.17,5.41c-3.87-3.02-8.61-4.81-13.75-4.81c-7.06,0-13.39,3.38-17.71,8.72c-1.7-0.82-3.58-1.29-5.57-1.29
			c-7.56,0-13.69,6.65-13.69,14.86c0,0.31,0.03,0.61,0.04,0.92c-0.71-0.2-1.46-0.32-2.23-0.32c-3.38,0-6.3,2.08-7.77,5.11
			c-1.78-0.98-3.79-1.55-5.92-1.55c-5.65,0-10.45,3.88-12.31,9.31c-0.36-0.06-0.73-0.1-1.1-0.1c-3.96,0-7.22,3.26-7.63,7.45
			c-0.1-0.01-0.21-0.02-0.32-0.02c-2.42,0-4.45,1.79-5.03,4.23c-0.59-0.04-1.19-0.07-1.81-0.07c-4.93,0-9.08,1.4-10.3,3.3
			c-0.4-0.02-0.79-0.03-1.2-0.03c-5.9,0-10.68,1.99-10.68,4.46c0,2.46,4.78,4.46,10.68,4.46c0.76,0,1.5-0.03,2.22-0.1
			c1.75,1.47,5.36,2.48,9.55,2.48c0.41,0,0.81-0.01,1.21-0.03c0.49,2.4,2.45,4.19,4.81,4.19c0.54,0,1.05-0.1,1.54-0.27
			c1.69,2.5,4.42,4.13,7.5,4.13c1.54,0,2.99-0.41,4.28-1.13c1.38,1.44,3.24,2.32,5.3,2.32c2.09,0,3.98-0.91,5.36-2.38
			c2.41,3.26,6.1,5.35,10.25,5.35c3.41,0,6.51-1.42,8.84-3.73c1.08,2.55,3.46,4.33,6.22,4.33c2.47,0,4.62-1.42,5.83-3.54
			c1.98,1.3,4.29,2.05,6.77,2.05c3.05,0,5.85-1.14,8.08-3.03c1.25,1.49,3.05,2.44,5.06,2.44c1.97,0,3.74-0.91,4.99-2.35
			c1.9,3.2,5.21,5.32,8.97,5.32c2.97,0,5.66-1.32,7.6-3.45c3.56,3.03,8.77,4.94,14.58,4.94c7.15,0,13.4-2.89,16.77-7.2
			c2.06,3.69,5.79,6.16,10.06,6.16c1.42,0,2.78-0.29,4.04-0.79c1.56,2.78,4.38,4.65,7.6,4.65c3.2,0,5.99-1.84,7.56-4.58
			c3.53,2.79,7.86,4.44,12.56,4.44c7.34,0,13.81-4.02,17.66-10.14c2.34,2.67,5.64,4.34,9.31,4.34c3.83,0,7.25-1.82,9.61-4.7
			c0.85,0.34,1.76,0.54,2.71,0.54c1.09,0,2.13-0.25,3.08-0.69c2.55,0.81,5.49,1.28,8.62,1.28c8.93,0,16.28-3.77,17.42-8.64
			c0.15,0.01,0.29,0.02,0.44,0.02c2.09,0,3.93-1.13,5.05-2.86c0.86,0.5,1.85,0.78,2.89,0.78c3.06,0,5.6-2.43,6.07-5.61
			C493.74,224.92,499.46,223.4,499.46,221.58z"/>
		<linearGradient id="SVGID_5_" gradientUnits="userSpaceOnUse" x1="220.122" y1="229.988" x2="220.122" y2="156.937">
			<stop  offset="0" style="stop-color:#000000"/>
			<stop  offset="0.1324" style="stop-color:#040404"/>
			<stop  offset="0.2646" style="stop-color:#101010"/>
			<stop  offset="0.3968" style="stop-color:#242424"/>
			<stop  offset="0.5291" style="stop-color:#404040"/>
			<stop  offset="0.6615" style="stop-color:#646464"/>
			<stop  offset="0.794" style="stop-color:#919191"/>
			<stop  offset="0.9242" style="stop-color:#C4C4C4"/>
			<stop  offset="1" style="stop-color:#E6E6E6"/>
		</linearGradient>
		<path class="st1" d="M365.83,207.94c-2.51-0.27-5.19-0.4-7.86-0.42c-0.11-1.41-0.91-2.74-2.24-3.46
			c-2.09-1.13-4.71-0.35-5.84,1.75c-0.5-7.24-20.58-11.41-24.03-4.64c-0.35-2.6-1.88-5.02-4.36-6.36c-4.12-2.22-9.28-0.69-11.5,3.44
			c-0.06,0.11-0.09,0.23-0.14,0.34c-1.26-0.29-2.53-0.49-3.82-0.59c0.41-2.35-0.67-4.8-2.89-6c-2.65-1.43-5.91-0.53-7.5,1.97
			c-0.88-0.72-1.83-1.37-2.87-1.93c-2.57-1.39-5.32-2.07-8.05-2.15c-1.48-3.97-4.33-7.44-8.35-9.61c-7.05-3.8-15.49-2.44-21.01,2.77
			c-0.02-3.45-1.83-6.78-5.08-8.54c-3.14-1.7-6.78-1.46-9.64,0.26c-0.74-4.64-3.54-8.91-8-11.31c-5.82-3.14-12.74-2.2-17.51,1.83
			c-1.33-2.69-3.47-5.01-6.31-6.54c-7.29-3.93-16.4-1.22-20.34,6.08c-0.16,0.3-0.3,0.62-0.44,0.93c-1.3-1.24-2.77-2.35-4.43-3.24
			c-10-5.39-22.49-1.67-27.89,8.34c-0.98,1.82-1.65,3.72-2.05,5.65c-5.53-0.08-10.91,2.83-13.71,8.03c-0.79,1.47-1.31,3-1.59,4.56
			c-3.25-0.69-6.62,0.29-9,2.6c-0.63-0.52-1.32-0.99-2.06-1.39c-6.09-3.29-13.64-1.17-17.18,4.69c-0.19-0.15-0.39-0.29-0.61-0.41
			c-2.29-1.24-5.16-0.38-6.4,1.91c-0.53,0.99-0.66,2.07-0.47,3.09c-0.61,0.14-1.2,0.34-1.78,0.58c-0.41-0.9-1.09-1.68-2.03-2.18
			c-2.3-1.24-5.16-0.38-6.4,1.91c-0.5,0.92-0.64,1.93-0.51,2.89c-0.79,0.18-1.55,0.43-2.26,0.79c-1.99-0.42-4.1,0.47-5.12,2.36
			c-0.11,0.2-0.18,0.4-0.25,0.61c-0.59-0.13-1.21-0.22-1.86-0.22c-2.3,0-4.28,0.88-5.37,2.17c-0.17,0-0.34,0-0.51,0
			c-6.45,0-11.68,1-11.68,2.24c0,1.24,5.23,2.24,11.68,2.24c0.17,0,0.34,0,0.51-0.01c1.09,1.3,3.08,2.17,5.37,2.17
			c1.3,0,2.5-0.28,3.5-0.75c0.81,1.46,2.1,2.73,3.82,3.56c2.54,1.23,5.43,1.24,7.89,0.3c0.68,0.65,1.45,1.22,2.32,1.69
			c3.42,1.84,7.37,1.68,10.54-0.06c0.8,0.86,1.75,1.62,2.85,2.21c5.01,2.71,11.16,1.17,14.37-3.36c0.84,2.49,2.59,4.69,5.08,6.03
			c5.17,2.8,11.59,0.92,14.49-4.15c1.75,2.41,4.04,4.48,6.83,5.99c8.8,4.76,19.52,2.43,25.65-5.01c1.18,2.03,2.9,3.78,5.12,4.98
			c6.39,3.46,14.37,1.07,17.82-5.33c0.05-0.09,0.09-0.19,0.14-0.29c0.86,2.61,2.67,4.91,5.28,6.32c5.41,2.93,12.18,0.9,15.1-4.51
			c0.2-0.37,0.37-0.74,0.52-1.12c1.64,2.49,3.89,4.62,6.7,6.13c8.64,4.67,19.32,1.76,24.49-6.41c1.09,1.71,2.6,3.18,4.51,4.21
			c5.01,2.71,11.06,1.54,14.76-2.44c0.43,0.28,0.87,0.56,1.33,0.81c7,3.78,15.37,2.46,20.9-2.66c6.98,2.16,15.07,1.08,20.31-2.46
			c3.52,0.6,7.22,0.63,10.65,0.14c0.66,0.77,1.45,1.45,2.4,1.95c4.13,2.23,9.28,0.69,11.5-3.44c0.02-0.04,0.03-0.07,0.05-0.11
			c4.92-0.27,9.47-1.23,12.37-2.77c7.57,0.29,15.55-0.4,19.41-1.81C377.91,211.04,374.63,208.88,365.83,207.94z"/>
		<linearGradient id="SVGID_6_" gradientUnits="userSpaceOnUse" x1="340.0031" y1="248.0583" x2="355.0209" y2="145.2608">
			<stop  offset="0" style="stop-color:#000000"/>
			<stop  offset="0.1324" style="stop-color:#040404"/>
			<stop  offset="0.2646" style="stop-color:#101010"/>
			<stop  offset="0.3968" style="stop-color:#242424"/>
			<stop  offset="0.5291" style="stop-color:#404040"/>
			<stop  offset="0.6615" style="stop-color:#646464"/>
			<stop  offset="0.794" style="stop-color:#919191"/>
			<stop  offset="0.9242" style="stop-color:#C4C4C4"/>
			<stop  offset="1" style="stop-color:#E6E6E6"/>
		</linearGradient>
		<path class="st2" d="M551.1,217.27c-3.57-0.38-7.38-0.57-11.18-0.6c-0.16-2-1.29-3.89-3.19-4.92c-2.98-1.6-6.7-0.5-8.31,2.48
			c-0.71-10.29-29.27-16.23-34.17-6.59c-0.5-3.7-2.67-7.13-6.2-9.04c-5.87-3.16-13.19-0.98-16.36,4.89
			c-0.09,0.16-0.12,0.32-0.2,0.48c-1.79-0.41-3.6-0.7-5.43-0.84c0.58-3.34-0.95-6.83-4.1-8.54c-3.77-2.03-8.4-0.75-10.66,2.81
			c-1.25-1.02-2.6-1.95-4.08-2.74c-3.65-1.97-7.57-2.94-11.45-3.06c-2.1-5.64-6.16-10.59-11.88-13.67
			c-10.02-5.41-22.03-3.47-29.89,3.93c-0.03-4.91-2.6-9.65-7.22-12.14c-4.47-2.41-9.65-2.07-13.71,0.36
			c-1.05-6.6-5.04-12.66-11.38-16.09c-8.28-4.47-18.12-3.13-24.9,2.6c-1.89-3.82-4.93-7.12-8.97-9.3
			c-10.37-5.59-23.33-1.73-28.93,8.65c-0.23,0.43-0.43,0.88-0.63,1.32c-1.85-1.77-3.94-3.34-6.3-4.61
			c-14.22-7.67-31.98-2.37-39.66,11.86c-1.4,2.59-2.35,5.29-2.91,8.03c-7.86-0.11-15.51,4.03-19.5,11.43
			c-1.13,2.08-1.86,4.27-2.26,6.48c-4.62-0.98-9.41,0.41-12.79,3.7c-0.9-0.73-1.87-1.4-2.93-1.97c-8.66-4.68-19.39-1.67-24.43,6.67
			c-0.28-0.21-0.55-0.42-0.87-0.59c-3.26-1.76-7.34-0.55-9.1,2.72c-0.76,1.4-0.93,2.95-0.67,4.4c-0.87,0.2-1.71,0.48-2.53,0.83
			c-0.59-1.28-1.55-2.39-2.89-3.11c-3.26-1.76-7.34-0.54-9.1,2.72c-0.71,1.31-0.91,2.74-0.72,4.11c-1.12,0.25-2.21,0.61-3.22,1.12
			c-2.84-0.59-5.84,0.68-7.28,3.35c-0.15,0.28-0.25,0.57-0.36,0.86c-0.84-0.18-1.72-0.31-2.64-0.31c-3.26,0-6.09,1.25-7.64,3.09
			c-0.24,0-0.48-0.01-0.72-0.01c-9.18,0-16.61,1.43-16.61,3.19c0,1.76,7.44,3.19,16.61,3.19c0.24,0,0.48-0.01,0.72-0.01
			c1.55,1.84,4.38,3.09,7.64,3.09c1.84,0,3.56-0.39,4.98-1.07c1.15,2.08,2.98,3.88,5.43,5.07c3.61,1.75,7.72,1.76,11.22,0.43
			c0.97,0.92,2.07,1.74,3.3,2.4c4.86,2.62,10.49,2.4,14.99-0.09c1.14,1.23,2.5,2.3,4.06,3.14c7.12,3.85,15.87,1.67,20.44-4.77
			c1.2,3.54,3.68,6.66,7.23,8.58c7.35,3.98,16.49,1.32,20.61-5.9c2.49,3.42,5.74,6.37,9.72,8.51c12.52,6.77,27.76,3.45,36.47-7.12
			c1.68,2.89,4.12,5.38,7.28,7.08c9.09,4.91,20.44,1.52,25.35-7.57c0.07-0.13,0.12-0.27,0.19-0.41c1.22,3.71,3.8,6.98,7.51,8.98
			c7.7,4.17,17.32,1.29,21.47-6.42c0.28-0.52,0.52-1.06,0.74-1.59c2.33,3.54,5.53,6.57,9.52,8.72c12.29,6.64,27.48,2.51,34.83-9.12
			c1.54,2.43,3.7,4.52,6.42,5.99c7.12,3.85,15.73,2.19,20.99-3.48c0.61,0.4,1.24,0.79,1.89,1.15c9.95,5.38,21.86,3.5,29.72-3.78
			c9.93,3.07,21.43,1.53,28.88-3.5c5,0.86,10.27,0.89,15.14,0.2c0.94,1.09,2.06,2.06,3.41,2.78c5.87,3.17,13.19,0.98,16.36-4.89
			c0.03-0.05,0.04-0.1,0.07-0.16c7-0.38,13.47-1.75,17.59-3.94c10.77,0.42,22.11-0.57,27.6-2.57
			C568.28,221.68,563.61,218.6,551.1,217.27z"/>
		<linearGradient id="SVGID_7_" gradientUnits="userSpaceOnUse" x1="68.5207" y1="292.475" x2="68.5207" y2="214.5246">
			<stop  offset="0" style="stop-color:#000000"/>
			<stop  offset="0.1324" style="stop-color:#040404"/>
			<stop  offset="0.2646" style="stop-color:#101010"/>
			<stop  offset="0.3968" style="stop-color:#242424"/>
			<stop  offset="0.5291" style="stop-color:#404040"/>
			<stop  offset="0.6615" style="stop-color:#646464"/>
			<stop  offset="0.794" style="stop-color:#919191"/>
			<stop  offset="0.9242" style="stop-color:#C4C4C4"/>
			<stop  offset="1" style="stop-color:#E6E6E6"/>
		</linearGradient>
		<path class="st3" d="M205.89,274.54c-1.77-0.27-3.41-0.36-4.68-0.28c-0.2-1.1-1.57-2.02-3.3-2.15c-1.76-0.13-3.27,0.6-3.6,1.68
			c-0.71-0.75-1.71-1.23-2.82-1.23c-1.02,0-1.94,0.4-2.63,1.05c-0.81-1.14-2.1-1.91-3.58-2.04c-0.47-1.39-1.77-2.39-3.32-2.39
			c-0.54,0-1.04,0.13-1.5,0.35c-1.12-1.99-3.26-3.34-5.7-3.34c-1.65,0-3.16,0.62-4.31,1.63c-1.56-1.18-3.5-1.89-5.6-1.89
			c-1.34,0-2.62,0.29-3.77,0.8c-0.41-3.22-3.16-5.71-6.49-5.71c-0.48,0-0.94,0.05-1.39,0.15c0-0.05,0.01-0.1,0.01-0.15
			c0-3.62-2.93-6.55-6.55-6.55c-0.49,0-0.96,0.06-1.42,0.16c-1.79-6.6-7.8-11.46-14.97-11.46c-3.38,0-6.49,1.09-9.03,2.92
			c-0.61-5.71-5.44-10.16-11.32-10.16c-3.31,0-6.29,1.43-8.37,3.69c-0.93-10.38-9.63-18.52-20.26-18.52
			c-4.88,0-9.36,1.72-12.87,4.59c-4.81-6.74-12.7-11.14-21.62-11.14c-12.82,0-23.52,9.08-26.01,21.17
			c-1.82-0.52-3.73-0.82-5.72-0.82c-10.61,0-19.34,7.98-20.54,18.26c-1.24-0.43-2.56-0.67-3.95-0.67c-4.49,0-8.4,2.46-10.48,6.1
			c-1.27-0.38-2.61-0.59-4-0.59c-4.94,0-9.28,2.54-11.81,6.37c-0.96-0.65-2.12-1.03-3.37-1.03c-2.75,0-5.06,1.84-5.79,4.35
			c-0.55-0.24-1.16-0.38-1.8-0.38c-2.03,0-3.72,1.36-4.28,3.21c-1.42,0.28-2.62,1.17-3.34,2.37c-0.05,0-0.1-0.02-0.15-0.02
			c-1.12,0-2.11,0.48-2.82,1.23c-0.33-1.08-1.84-1.81-3.6-1.68c-1.74,0.13-3.11,1.06-3.3,2.15c-1.28-0.08-2.91,0.01-4.68,0.28
			c-3.87,0.6-6.89,1.86-6.74,2.82c0.13,0.86,2.76,1.18,6.1,0.81c0.71,0.6,2.2,1.05,3.95,1.11c1.56,0.05,2.94-0.22,3.76-0.67
			c0.57,0.69,1.42,1.14,2.39,1.14c0.79,0,1.5-0.3,2.04-0.78c0.71,0.82,1.75,1.34,2.92,1.34c0.79,0,1.53-0.24,2.14-0.64
			c0.71,0.37,1.5,0.6,2.35,0.6c1.47,0,2.78-0.63,3.71-1.62c1.1,1.41,2.82,2.31,4.74,2.31c2.09,0,3.94-1.07,5.02-2.68
			c2.35,4.56,7.09,7.69,12.57,7.69c4.42,0,8.37-2.03,10.96-5.21c1.87,4.48,6.3,7.63,11.46,7.63c5.57,0,10.28-3.66,11.85-8.71
			c1.78,4.69,6.29,8.02,11.6,8.02c4.73,0,8.84-2.65,10.94-6.54c3.63,5.98,10.18,9.99,17.69,9.99c5.78,0,11-2.37,14.75-6.19
			c2.31,3.71,6.42,6.19,11.12,6.19c3.91,0,7.42-1.72,9.82-4.44c3.93,3.41,9.06,5.47,14.67,5.47c6.77,0,12.83-3,16.94-7.75
			c2.54,2.04,5.76,3.26,9.27,3.26c4.92,0,9.26-2.4,11.96-6.09c2.06,2.06,4.9,3.33,8.04,3.33c4.06,0,7.62-2.13,9.63-5.33
			c1.61,2.77,4.61,4.64,8.05,4.64c2.7,0,5.13-1.16,6.83-2.99c1.09,0.85,2.46,1.35,3.95,1.35c2.38,0,4.45-1.29,5.58-3.2
			c0.9,1.01,2.19,1.65,3.65,1.65c1.66,0,3.11-0.82,4.01-2.08c0.69,0.64,1.61,1.05,2.63,1.05c1.17,0,2.2-0.53,2.92-1.34
			c0.55,0.48,1.26,0.78,2.04,0.78c0.97,0,1.82-0.45,2.39-1.14c0.81,0.45,2.19,0.72,3.76,0.67c1.75-0.06,3.24-0.51,3.95-1.11
			c3.33,0.37,5.96,0.05,6.1-0.81C212.78,276.4,209.77,275.14,205.89,274.54z"/>
		<linearGradient id="SVGID_8_" gradientUnits="userSpaceOnUse" x1="386.8643" y1="171.6549" x2="386.8643" y2="95.5391">
			<stop  offset="0" style="stop-color:#000000"/>
			<stop  offset="0.1324" style="stop-color:#040404"/>
			<stop  offset="0.2646" style="stop-color:#101010"/>
			<stop  offset="0.3968" style="stop-color:#242424"/>
			<stop  offset="0.5291" style="stop-color:#404040"/>
			<stop  offset="0.6615" style="stop-color:#646464"/>
			<stop  offset="0.794" style="stop-color:#919191"/>
			<stop  offset="0.9242" style="stop-color:#C4C4C4"/>
			<stop  offset="1" style="stop-color:#E6E6E6"/>
		</linearGradient>
		<path class="st4" d="M521,154.14c-1.73-0.27-3.33-0.35-4.57-0.27c-0.19-1.07-1.53-1.97-3.23-2.1c-1.72-0.13-3.19,0.59-3.52,1.64
			c-0.69-0.74-1.67-1.2-2.76-1.2c-1,0-1.9,0.39-2.57,1.02c-0.79-1.12-2.05-1.86-3.49-1.99c-0.46-1.36-1.73-2.34-3.24-2.34
			c-0.52,0-1.02,0.13-1.46,0.34c-1.1-1.95-3.18-3.26-5.57-3.26c-1.61,0-3.08,0.6-4.21,1.59c-1.52-1.15-3.41-1.84-5.47-1.84
			c-1.31,0-2.55,0.28-3.68,0.78c-0.4-3.15-3.08-5.58-6.34-5.58c-0.47,0-0.92,0.05-1.36,0.15c0-0.05,0.01-0.1,0.01-0.15
			c0-3.53-2.86-6.4-6.4-6.4c-0.48,0-0.94,0.06-1.38,0.15c-1.75-6.44-7.62-11.19-14.61-11.19c-3.3,0-6.34,1.06-8.82,2.85
			c-0.6-5.58-5.31-9.92-11.05-9.92c-3.24,0-6.14,1.39-8.17,3.6c-0.91-10.13-9.41-18.08-19.78-18.08c-4.77,0-9.14,1.68-12.57,4.48
			c-4.7-6.59-12.4-10.88-21.11-10.88c-12.52,0-22.97,8.87-25.4,20.67c-1.78-0.51-3.65-0.8-5.59-0.8c-10.36,0-18.88,7.79-20.06,17.83
			c-1.21-0.42-2.5-0.66-3.86-0.66c-4.39,0-8.21,2.4-10.24,5.96c-1.24-0.37-2.55-0.57-3.91-0.57c-4.82,0-9.06,2.48-11.53,6.22
			c-0.94-0.63-2.07-1-3.29-1c-2.68,0-4.94,1.79-5.66,4.24c-0.54-0.24-1.13-0.37-1.75-0.37c-1.98,0-3.63,1.32-4.18,3.13
			c-1.39,0.28-2.55,1.14-3.26,2.31c-0.05,0-0.09-0.02-0.14-0.02c-1.09,0-2.06,0.47-2.75,1.2c-0.32-1.05-1.8-1.77-3.52-1.64
			c-1.7,0.13-3.03,1.03-3.23,2.1c-1.25-0.08-2.84,0.01-4.57,0.27c-3.78,0.58-6.73,1.81-6.58,2.75c0.13,0.84,2.7,1.16,5.95,0.79
			c0.69,0.59,2.15,1.03,3.86,1.09c1.52,0.05,2.87-0.21,3.67-0.65c0.55,0.68,1.39,1.12,2.33,1.12c0.77,0,1.46-0.29,1.99-0.76
			c0.7,0.8,1.71,1.31,2.85,1.31c0.77,0,1.49-0.23,2.09-0.63c0.69,0.36,1.46,0.59,2.29,0.59c1.43,0,2.71-0.61,3.62-1.58
			c1.08,1.37,2.75,2.26,4.63,2.26c2.04,0,3.84-1.04,4.9-2.62c2.29,4.45,6.92,7.5,12.28,7.5c4.32,0,8.17-1.99,10.71-5.09
			c1.83,4.37,6.15,7.45,11.19,7.45c5.44,0,10.04-3.58,11.57-8.51c1.73,4.58,6.15,7.83,11.33,7.83c4.62,0,8.64-2.59,10.68-6.39
			c3.54,5.84,9.94,9.76,17.27,9.76c5.64,0,10.74-2.32,14.4-6.05c2.26,3.62,6.27,6.04,10.86,6.04c3.82,0,7.24-1.68,9.58-4.34
			c3.84,3.33,8.85,5.35,14.33,5.35c6.61,0,12.53-2.93,16.54-7.56c2.48,1.99,5.62,3.19,9.05,3.19c4.8,0,9.05-2.35,11.68-5.94
			c2.01,2.01,4.79,3.25,7.85,3.25c3.97,0,7.44-2.08,9.4-5.21c1.57,2.71,4.5,4.53,7.86,4.53c2.64,0,5.01-1.13,6.67-2.92
			c1.07,0.83,2.4,1.32,3.86,1.32c2.32,0,4.35-1.26,5.44-3.13c0.88,0.98,2.14,1.61,3.56,1.61c1.62,0,3.04-0.81,3.91-2.03
			c0.68,0.63,1.58,1.02,2.57,1.02c1.14,0,2.15-0.51,2.85-1.31c0.53,0.47,1.23,0.76,1.99,0.76c0.94,0,1.77-0.44,2.33-1.11
			c0.8,0.44,2.14,0.7,3.67,0.65c1.71-0.06,3.16-0.5,3.86-1.09c3.25,0.36,5.82,0.05,5.95-0.79
			C527.73,155.95,524.79,154.72,521,154.14z"/>
		<linearGradient id="SVGID_9_" gradientUnits="userSpaceOnUse" x1="224.4904" y1="277.7197" x2="224.4904" y2="186.7619">
			<stop  offset="0" style="stop-color:#000000"/>
			<stop  offset="0.1324" style="stop-color:#040404"/>
			<stop  offset="0.2646" style="stop-color:#101010"/>
			<stop  offset="0.3968" style="stop-color:#242424"/>
			<stop  offset="0.5291" style="stop-color:#404040"/>
			<stop  offset="0.6615" style="stop-color:#646464"/>
			<stop  offset="0.794" style="stop-color:#919191"/>
			<stop  offset="0.9242" style="stop-color:#C4C4C4"/>
			<stop  offset="1" style="stop-color:#E6E6E6"/>
		</linearGradient>
		<path class="st5" d="M388.96,253.72c-0.37-2.67-2.66-4.74-5.44-4.74c-1.37,0-2.62,0.51-3.59,1.34c-1-1.39-2.62-2.3-4.46-2.3
			c-0.97,0-1.89,0.25-2.68,0.7c-0.53-2.48-2.73-4.34-5.37-4.34c-1.84,0-3.47,0.91-4.47,2.3c-1.34-1.35-3.2-2.18-5.25-2.18
			c-1,0-1.96,0.2-2.83,0.56c-0.21-2.85-2.57-5.1-5.47-5.1c-2.18,0-4.05,1.27-4.94,3.11c-1.27-1.02-2.88-1.64-4.64-1.64
			c-1.29,0-2.51,0.33-3.57,0.92c-1.86-1.37-4.16-2.2-6.65-2.2c-1.56,0-3.04,0.32-4.39,0.89c-1.16-4.97-5.61-8.68-10.94-8.68
			c-1.9,0-3.68,0.48-5.25,1.3c-1.42-2.17-3.86-3.61-6.64-3.61c-3.43,0-6.35,2.19-7.45,5.24c-0.66-5.19-5.08-9.2-10.44-9.2
			c-1.77,0-3.43,0.44-4.89,1.21c-2.21-4.23-6.46-7.21-11.44-7.66c0.11-0.47,0.17-0.96,0.17-1.47c0-3.67-2.97-6.64-6.64-6.64
			c-0.83,0-1.62,0.16-2.35,0.44c-1.5-5.76-6.74-10.02-12.98-10.02c-1.86,0-3.64,0.38-5.25,1.07c-0.18-9.02-7.54-16.27-16.6-16.27
			c-8.75,0-15.91,6.77-16.55,15.34c-2.39-2.22-5.6-3.59-9.13-3.59c-7.1,0-12.92,5.53-13.38,12.52c-1.01-0.39-2.11-0.62-3.27-0.62
			c-4.29,0-7.87,2.98-8.81,6.98c-2.71-1.76-5.95-2.78-9.42-2.78c-7.6,0-14.06,4.89-16.42,11.69c-0.31-0.04-0.63-0.06-0.96-0.06
			c-2.78,0-5.22,1.44-6.64,3.61c-1.57-0.83-3.35-1.3-5.25-1.3c-1.45,0-2.84,0.29-4.11,0.79c-1.76-1.93-4.3-3.15-7.12-3.15
			c-4.29,0-7.92,2.8-9.18,6.66c-3.64-0.3-7.85,0.2-12.01,1.51c-4.79,1.51-7.99,4.03-8.2,6.88c-0.87-0.36-1.83-0.56-2.83-0.56
			c-2.05,0-3.9,0.83-5.25,2.18c-1-1.39-2.62-2.3-4.47-2.3c-2.64,0-4.84,1.86-5.37,4.34c-0.79-0.44-1.7-0.7-2.68-0.7
			c-1.84,0-3.46,0.91-4.46,2.3c-0.96-0.83-2.21-1.34-3.59-1.34c-2.78,0-5.07,2.06-5.44,4.74c-11.1,0.12-19.86,1.44-19.86,3.06
			c0,1.7,9.61,3.07,21.46,3.07c0.24,0,0.48,0,0.72,0c0.57,1.78,2.23,3.07,4.2,3.07c1.31,0,2.49-0.58,3.29-1.48
			c2.88,1.12,6.79,1.95,11.25,2.31c0.92,1.64,2.67,2.76,4.69,2.76c0.82,0,1.6-0.19,2.29-0.52c0.94,1.57,2.65,2.62,4.61,2.62
			c2.28,0,4.23-1.43,5-3.44c2.91,0.69,6.2,1.07,9.69,1.07c2.72,0,5.32-0.24,7.72-0.67c0.78,2,2.72,3.41,4.99,3.41
			c1.36,0,2.61-0.51,3.55-1.35c1.49,0.73,3.17,1.16,4.95,1.16c3.46,0,6.56-1.57,8.63-4.03c1.35,4.69,5.67,8.13,10.79,8.13
			c4.54,0,8.44-2.7,10.22-6.57c2.84,3.83,7.39,6.31,12.53,6.31c5.52,0,10.36-2.87,13.13-7.19c4.57,6.94,12.43,11.53,21.36,11.53
			c5.26,0,10.16-1.59,14.22-4.32c2.06,2.48,5.17,4.06,8.65,4.06c3.19,0,6.06-1.33,8.11-3.47c2.04,3.31,5.68,5.52,9.84,5.52
			c3.69,0,6.97-1.73,9.08-4.42c2.17,4.29,6.61,7.22,11.74,7.22c5.48,0,10.17-3.34,12.15-8.1c2.4,2.62,5.86,4.27,9.7,4.27
			c2.69,0,5.19-0.81,7.27-2.19c1.51,0.75,3.2,1.18,4.99,1.18c5.13,0,9.44-3.43,10.79-8.12c2.06,2.46,5.16,4.03,8.63,4.03
			c1.78,0,3.45-0.42,4.95-1.16c0.95,0.84,2.19,1.35,3.55,1.35c2.27,0,4.21-1.41,4.99-3.41c2.4,0.43,5,0.66,7.72,0.66
			c3.49,0,6.78-0.39,9.69-1.07c6.26,6.94,15.32,2.6,16.59-1.43c4.46-0.36,8.36-1.18,11.25-2.31c0.81,0.91,1.98,1.49,3.29,1.49
			c1.97,0,3.63-1.29,4.2-3.07c0.24,0,0.48,0,0.72,0c11.86,0,21.46-1.37,21.46-3.07C408.82,255.16,400.07,253.84,388.96,253.72z"/>
		<linearGradient id="SVGID_10_" gradientUnits="userSpaceOnUse" x1="420.248" y1="201.6415" x2="420.248" y2="128.5905">
			<stop  offset="0" style="stop-color:#000000"/>
			<stop  offset="0.1324" style="stop-color:#040404"/>
			<stop  offset="0.2646" style="stop-color:#101010"/>
			<stop  offset="0.3968" style="stop-color:#242424"/>
			<stop  offset="0.5291" style="stop-color:#404040"/>
			<stop  offset="0.6615" style="stop-color:#646464"/>
			<stop  offset="0.794" style="stop-color:#919191"/>
			<stop  offset="0.9242" style="stop-color:#C4C4C4"/>
			<stop  offset="1" style="stop-color:#E6E6E6"/>
		</linearGradient>
		<path class="st6" d="M565.95,179.6c-2.51-0.27-5.19-0.4-7.86-0.42c-0.11-1.41-0.91-2.74-2.24-3.46c-2.09-1.13-4.71-0.35-5.84,1.75
			c-0.5-7.24-20.58-11.41-24.03-4.64c-0.35-2.6-1.88-5.02-4.36-6.36c-4.12-2.22-9.28-0.69-11.5,3.44c-0.06,0.11-0.09,0.23-0.14,0.34
			c-1.26-0.29-2.53-0.49-3.82-0.59c0.41-2.35-0.67-4.8-2.89-6c-2.65-1.43-5.91-0.53-7.5,1.97c-0.88-0.72-1.83-1.37-2.87-1.93
			c-2.57-1.39-5.32-2.07-8.05-2.15c-1.48-3.97-4.33-7.44-8.35-9.61c-7.05-3.8-15.49-2.44-21.01,2.77c-0.02-3.45-1.83-6.78-5.08-8.54
			c-3.14-1.7-6.78-1.46-9.64,0.26c-0.74-4.64-3.54-8.91-8-11.31c-5.82-3.14-12.74-2.2-17.51,1.83c-1.33-2.69-3.47-5.01-6.31-6.54
			c-7.29-3.93-16.4-1.22-20.34,6.08c-0.16,0.3-0.3,0.62-0.44,0.93c-1.3-1.24-2.77-2.35-4.43-3.24c-10-5.39-22.49-1.67-27.89,8.34
			c-0.98,1.82-1.65,3.72-2.05,5.65c-5.53-0.08-10.91,2.83-13.71,8.03c-0.79,1.47-1.31,3-1.59,4.56c-3.25-0.69-6.62,0.29-9,2.6
			c-0.63-0.52-1.32-0.99-2.06-1.39c-6.09-3.29-13.64-1.17-17.18,4.69c-0.19-0.15-0.39-0.29-0.61-0.41c-2.3-1.24-5.16-0.38-6.4,1.91
			c-0.53,0.99-0.66,2.07-0.47,3.09c-0.61,0.14-1.2,0.34-1.78,0.58c-0.41-0.9-1.09-1.68-2.03-2.18c-2.29-1.24-5.16-0.38-6.4,1.91
			c-0.5,0.92-0.64,1.93-0.51,2.89c-0.79,0.18-1.55,0.43-2.26,0.79c-1.99-0.42-4.1,0.47-5.12,2.36c-0.11,0.2-0.18,0.4-0.25,0.61
			c-0.59-0.13-1.21-0.22-1.86-0.22c-2.3,0-4.28,0.88-5.37,2.17c-0.17,0-0.34,0-0.51,0c-6.45,0-11.68,1-11.68,2.24
			c0,1.24,5.23,2.24,11.68,2.24c0.17,0,0.34,0,0.51-0.01c1.09,1.3,3.08,2.17,5.37,2.17c1.3,0,2.5-0.28,3.5-0.75
			c0.81,1.46,2.1,2.73,3.82,3.56c2.54,1.23,5.43,1.24,7.89,0.3c0.68,0.65,1.45,1.22,2.32,1.69c3.42,1.84,7.37,1.68,10.54-0.06
			c0.8,0.86,1.75,1.62,2.85,2.21c5.01,2.71,11.16,1.17,14.37-3.36c0.84,2.49,2.59,4.69,5.08,6.03c5.17,2.8,11.59,0.92,14.49-4.15
			c1.75,2.41,4.04,4.48,6.83,5.99c8.8,4.76,19.52,2.43,25.65-5.01c1.18,2.03,2.9,3.78,5.12,4.98c6.39,3.46,14.37,1.07,17.82-5.33
			c0.05-0.09,0.09-0.19,0.14-0.29c0.86,2.61,2.67,4.91,5.28,6.32c5.41,2.93,12.18,0.9,15.1-4.51c0.2-0.37,0.37-0.74,0.52-1.12
			c1.64,2.49,3.89,4.62,6.7,6.13c8.64,4.67,19.32,1.76,24.49-6.41c1.08,1.71,2.6,3.18,4.51,4.21c5.01,2.71,11.06,1.54,14.76-2.44
			c0.43,0.28,0.87,0.56,1.33,0.81c7,3.78,15.37,2.46,20.9-2.66c6.98,2.16,15.07,1.08,20.31-2.46c3.52,0.6,7.22,0.63,10.65,0.14
			c0.66,0.77,1.45,1.45,2.4,1.95c4.13,2.23,9.28,0.69,11.5-3.44c0.02-0.04,0.03-0.07,0.05-0.11c4.92-0.27,9.47-1.23,12.37-2.77
			c7.57,0.29,15.55-0.4,19.41-1.81C578.04,182.69,574.76,180.53,565.95,179.6z"/>
		<linearGradient id="SVGID_11_" gradientUnits="userSpaceOnUse" x1="241.0161" y1="311.6025" x2="241.0161" y2="226.2429">
			<stop  offset="0" style="stop-color:#000000"/>
			<stop  offset="0.1324" style="stop-color:#040404"/>
			<stop  offset="0.2646" style="stop-color:#101010"/>
			<stop  offset="0.3968" style="stop-color:#242424"/>
			<stop  offset="0.5291" style="stop-color:#404040"/>
			<stop  offset="0.6615" style="stop-color:#646464"/>
			<stop  offset="0.794" style="stop-color:#919191"/>
			<stop  offset="0.9242" style="stop-color:#C4C4C4"/>
			<stop  offset="1" style="stop-color:#E6E6E6"/>
		</linearGradient>
		<path class="st7" d="M391.45,291.96c-1.94-0.3-3.73-0.39-5.13-0.31c-0.22-1.2-1.72-2.21-3.62-2.36c-1.93-0.15-3.58,0.66-3.94,1.84
			c-0.78-0.82-1.87-1.35-3.09-1.35c-1.12,0-2.13,0.44-2.88,1.15c-0.89-1.25-2.3-2.09-3.92-2.23c-0.51-1.52-1.94-2.62-3.63-2.62
			c-0.59,0-1.14,0.14-1.64,0.38c-1.23-2.18-3.56-3.66-6.25-3.66c-1.81,0-3.46,0.68-4.72,1.78c-1.71-1.29-3.83-2.07-6.14-2.07
			c-1.47,0-2.86,0.32-4.13,0.88c-0.45-3.53-3.46-6.26-7.11-6.26c-0.52,0-1.03,0.06-1.52,0.16c0-0.06,0.01-0.11,0.01-0.17
			c0-3.96-3.21-7.18-7.17-7.18c-0.53,0-1.05,0.06-1.55,0.17c-1.96-7.23-8.54-12.54-16.39-12.54c-3.7,0-7.11,1.19-9.89,3.19
			c-0.67-6.25-5.96-11.13-12.39-11.13c-3.63,0-6.89,1.56-9.17,4.04c-1.02-11.37-10.55-20.28-22.18-20.28
			c-5.35,0-10.25,1.89-14.1,5.03c-5.27-7.38-13.91-12.2-23.68-12.2c-14.04,0-25.76,9.95-28.48,23.18c-1.99-0.57-4.09-0.9-6.27-0.9
			c-11.62,0-21.17,8.74-22.49,20c-1.36-0.47-2.81-0.74-4.33-0.74c-4.92,0-9.2,2.7-11.48,6.68c-1.39-0.41-2.86-0.64-4.38-0.64
			c-5.41,0-10.16,2.78-12.93,6.98c-1.05-0.71-2.32-1.12-3.69-1.12c-3.01,0-5.54,2.01-6.34,4.76c-0.6-0.26-1.27-0.42-1.97-0.42
			c-2.22,0-4.08,1.48-4.68,3.51c-1.56,0.31-2.86,1.28-3.66,2.59c-0.05,0-0.1-0.02-0.16-0.02c-1.22,0-2.32,0.52-3.09,1.35
			c-0.36-1.18-2.01-1.98-3.94-1.84c-1.9,0.15-3.4,1.16-3.62,2.36c-1.4-0.08-3.19,0.01-5.13,0.31c-4.24,0.65-7.54,2.03-7.38,3.09
			c0.15,0.94,3.03,1.3,6.68,0.89c0.78,0.66,2.41,1.15,4.33,1.22c1.71,0.06,3.22-0.24,4.11-0.73c0.62,0.76,1.56,1.25,2.62,1.25
			c0.86,0,1.64-0.33,2.24-0.86c0.78,0.89,1.91,1.47,3.19,1.47c0.87,0,1.67-0.26,2.34-0.71c0.77,0.41,1.64,0.66,2.57,0.66
			c1.6,0,3.04-0.69,4.06-1.78c1.21,1.54,3.08,2.53,5.19,2.53c2.29,0,4.31-1.17,5.5-2.94c2.57,4.99,7.76,8.42,13.77,8.42
			c4.84,0,9.17-2.23,12-5.71c2.05,4.91,6.89,8.35,12.54,8.35c6.1,0,11.25-4.01,12.98-9.54c1.94,5.13,6.89,8.79,12.7,8.79
			c5.18,0,9.68-2.9,11.98-7.17c3.97,6.55,11.15,10.94,19.37,10.94c6.33,0,12.04-2.6,16.15-6.78c2.53,4.06,7.03,6.78,12.17,6.78
			c4.29,0,8.12-1.89,10.75-4.86c4.31,3.73,9.92,6,16.07,6c7.41,0,14.05-3.29,18.55-8.48c2.78,2.23,6.31,3.57,10.15,3.57
			c5.39,0,10.14-2.63,13.1-6.67c2.26,2.25,5.37,3.64,8.81,3.64c4.45,0,8.34-2.33,10.55-5.84c1.77,3.04,5.04,5.08,8.81,5.08
			c2.96,0,5.61-1.27,7.48-3.28c1.2,0.93,2.7,1.48,4.33,1.48c2.6,0,4.88-1.41,6.11-3.51c0.99,1.1,2.4,1.81,4,1.81
			c1.82,0,3.41-0.9,4.39-2.28c0.76,0.7,1.77,1.15,2.88,1.15c1.28,0,2.41-0.58,3.19-1.47c0.6,0.53,1.37,0.86,2.24,0.86
			c1.06,0,1.99-0.49,2.61-1.25c0.89,0.5,2.4,0.79,4.12,0.73c1.92-0.07,3.55-0.56,4.33-1.22c3.65,0.41,6.53,0.05,6.68-0.89
			C398.99,293.99,395.69,292.61,391.45,291.96z"/>
		<linearGradient id="SVGID_12_" gradientUnits="userSpaceOnUse" x1="406.7769" y1="313.5749" x2="406.7769" y2="193.3779">
			<stop  offset="0" style="stop-color:#000000"/>
			<stop  offset="0.1324" style="stop-color:#040404"/>
			<stop  offset="0.2646" style="stop-color:#101010"/>
			<stop  offset="0.3968" style="stop-color:#242424"/>
			<stop  offset="0.5291" style="stop-color:#404040"/>
			<stop  offset="0.6615" style="stop-color:#646464"/>
			<stop  offset="0.794" style="stop-color:#919191"/>
			<stop  offset="0.9242" style="stop-color:#C4C4C4"/>
			<stop  offset="1" style="stop-color:#E6E6E6"/>
		</linearGradient>
		<path class="st8" d="M646.52,277.3c-4.13-0.44-8.54-0.66-12.93-0.69c-0.18-2.32-1.49-4.5-3.69-5.69
			c-3.45-1.86-7.75-0.57-9.61,2.87c-0.83-11.91-33.86-18.78-39.53-7.63c-0.58-4.28-3.09-8.25-7.18-10.46
			c-6.79-3.66-15.26-1.13-18.92,5.66c-0.1,0.18-0.14,0.37-0.23,0.56c-2.07-0.48-4.17-0.8-6.28-0.97c0.68-3.87-1.1-7.9-4.75-9.88
			c-4.36-2.35-9.72-0.87-12.34,3.25c-1.44-1.18-3.01-2.25-4.72-3.17c-4.22-2.28-8.76-3.4-13.25-3.53
			c-2.43-6.53-7.13-12.25-13.74-15.82c-11.59-6.25-25.48-4.02-34.58,4.55c-0.03-5.68-3-11.16-8.35-14.05
			c-5.17-2.79-11.16-2.4-15.86,0.42c-1.22-7.64-5.83-14.65-13.16-18.61c-9.57-5.17-20.97-3.62-28.81,3.01
			c-2.19-4.42-5.7-8.24-10.38-10.77c-12-6.47-26.99-2-33.47,10.01c-0.27,0.5-0.49,1.01-0.73,1.52c-2.14-2.04-4.56-3.86-7.29-5.34
			c-16.46-8.88-37-2.74-45.89,13.72c-1.61,2.99-2.72,6.12-3.37,9.29c-9.09-0.13-17.95,4.66-22.56,13.22
			c-1.3,2.41-2.16,4.94-2.62,7.5c-5.35-1.14-10.89,0.47-14.8,4.28c-1.04-0.85-2.16-1.62-3.39-2.28
			c-10.02-5.41-22.44-1.93-28.26,7.71c-0.32-0.24-0.64-0.48-1-0.68c-3.78-2.04-8.49-0.63-10.53,3.15c-0.87,1.62-1.08,3.41-0.77,5.09
			c-1,0.24-1.98,0.55-2.93,0.96c-0.68-1.48-1.8-2.76-3.34-3.59c-3.78-2.04-8.49-0.63-10.53,3.15c-0.82,1.52-1.06,3.18-0.84,4.76
			c-1.3,0.29-2.55,0.71-3.73,1.29c-3.28-0.69-6.75,0.78-8.42,3.88c-0.17,0.32-0.29,0.66-0.42,1c-0.97-0.21-1.98-0.36-3.05-0.36
			c-3.78,0-7.04,1.44-8.84,3.57c-0.28,0-0.55-0.01-0.83-0.01c-10.62,0-19.22,1.65-19.22,3.69c0,2.04,8.6,3.69,19.22,3.69
			c0.28,0,0.56-0.01,0.83-0.01c1.8,2.13,5.06,3.57,8.84,3.57c2.13,0,4.12-0.46,5.76-1.24c1.33,2.41,3.45,4.49,6.29,5.86
			c4.18,2.03,8.93,2.04,12.98,0.49c1.13,1.06,2.39,2.01,3.82,2.78c5.62,3.04,12.13,2.77,17.34-0.11c1.32,1.42,2.89,2.66,4.69,3.64
			c8.24,4.45,18.37,1.93,23.65-5.52c1.39,4.1,4.26,7.71,8.37,9.92c8.51,4.6,19.08,1.52,23.85-6.82c2.89,3.96,6.64,7.37,11.24,9.85
			c14.48,7.83,32.12,4,42.2-8.24c1.94,3.34,4.77,6.22,8.42,8.19c10.52,5.69,23.65,1.76,29.33-8.76c0.08-0.16,0.14-0.31,0.22-0.47
			c1.42,4.29,4.4,8.08,8.69,10.39c8.91,4.82,20.03,1.49,24.85-7.42c0.33-0.6,0.61-1.22,0.86-1.84c2.69,4.09,6.4,7.6,11.02,10.09
			c14.22,7.69,31.79,2.9,40.3-10.55c1.79,2.81,4.28,5.23,7.42,6.92c8.24,4.45,18.2,2.54,24.28-4.02c0.71,0.46,1.43,0.92,2.19,1.33
			c11.52,6.23,25.29,4.05,34.38-4.37c11.49,3.55,24.8,1.77,33.42-4.05c5.79,0.99,11.88,1.03,17.52,0.24
			c1.08,1.26,2.39,2.38,3.94,3.22c6.79,3.67,15.26,1.14,18.93-5.66c0.03-0.06,0.05-0.12,0.08-0.18c8.09-0.44,15.59-2.03,20.36-4.56
			c12.46,0.48,25.58-0.66,31.93-2.97C666.4,282.4,661,278.84,646.52,277.3z"/>
	</g>
</g>
</svg>
